<svg xmlns="http://www.w3.org/2000/svg" xmlns:xlink="http://www.w3.org/1999/xlink" viewBox="0 0 476.38 428.72"><defs><style>.cls-1{fill:#27debf;}.cls-2{fill:#f5f5f5;}.cls-3{fill:#e0e0e0;}.cls-4{fill:#455a64;}.cls-5{fill:#37474f;}.cls-6{fill:#263238;}.cls-15,.cls-16,.cls-19,.cls-7{fill:#fff;}.cls-7{opacity:0.8;}.cls-13,.cls-8{opacity:0.15;}.cls-16,.cls-9{opacity:0.3;}.cls-10{opacity:0.5;}.cls-11{opacity:0.35;}.cls-12{opacity:0.23;}.cls-14{opacity:0.4;}.cls-15{opacity:0.6;}.cls-17{opacity:0.1;}.cls-18{opacity:0.2;}.cls-20{clip-path:url(#clip-path);}.cls-21{fill:#ffa8a7;}.cls-22{opacity:0.45;}.cls-23{fill:#f28f8f;}.cls-24{fill:#fafafa;}.cls-25{fill:#b16668;}</style><clipPath id="clip-path"><path class="cls-1" d="M172.22,362.18l-10.83,6.26a3.24,3.24,0,0,1-2.94,0l-13.23-7.54a.89.89,0,0,1,0-1.69L156.06,353a3.24,3.24,0,0,1,2.94,0c3.58,2.07,9.64,5.46,13.22,7.54A.89.89,0,0,1,172.22,362.18Z"/></clipPath></defs><g id="Floor"><ellipse id="Floor-2" data-name="Floor" class="cls-2" cx="238.19" cy="291.2" rx="238.19" ry="137.52"/></g><g id="Shadows"><path id="Shadow" class="cls-3" d="M409.9,315.61a1.35,1.35,0,0,0-.15-.26,2,2,0,0,0-.14-.16.9.9,0,0,0-.15-.19l-.18-.17a4.21,4.21,0,0,0-.64-.45L186,185.82a8,8,0,0,0-7.19,0L62.89,252.54a3.37,3.37,0,0,0-.42.27s-.11.07-.15.11a2.88,2.88,0,0,0-.6.68,1,1,0,0,0-.1.17,1.31,1.31,0,0,0-.12.28,2.25,2.25,0,0,0,0,.22,1.47,1.47,0,0,0,0,.36,2,2,0,0,0,0,.25,2.29,2.29,0,0,0,.07.28,1.69,1.69,0,0,0,.12.27,3.17,3.17,0,0,0,1.27,1.25l222.7,128.55a6.7,6.7,0,0,0,2.13.73,10,10,0,0,0,1.46.12,9.87,9.87,0,0,0,1.44-.11,3.12,3.12,0,0,0,.46-.09,6.62,6.62,0,0,0,1.3-.44c.14-.06.26-.14.39-.21l115.87-66.71C410,317.73,410.42,316.61,409.9,315.61Z"/><ellipse id="Shadow-2" data-name="Shadow" class="cls-3" cx="395.69" cy="252.6" rx="49.53" ry="28.6"/><path id="Shadow-3" data-name="Shadow" class="cls-3" d="M135.18,400.73a11.65,11.65,0,0,1-5.76-1.43L30.22,342l-.09-.07A5.76,5.76,0,0,1,27.08,337a5.91,5.91,0,0,1,3.24-5l65.44-37.78a12.47,12.47,0,0,1,11.52,0l99.12,57.22a5.9,5.9,0,0,1,3.24,5,5.71,5.71,0,0,1-2.89,4.81,2.7,2.7,0,0,1-.4.25l-49.52,28.58L141,399.31a11.68,11.68,0,0,1-5.76,1.42Z"/></g><g id="Device"><g id="Device-2" data-name="Device"><g id="Mobile"><path class="cls-4" d="M400.24,300.87a1.22,1.22,0,0,0-.16-.26,1.83,1.83,0,0,0-.13-.16,1.35,1.35,0,0,0-.16-.19l-.17-.16a3.73,3.73,0,0,0-.65-.46L182.35,174.57a8,8,0,0,0-7.18,0L69,235.88l-.43.27-.14.12a2.64,2.64,0,0,0-.6.67.67.67,0,0,0-.11.18,1.08,1.08,0,0,0-.11.28,1.42,1.42,0,0,0,0,.22,1.47,1.47,0,0,0,0,.36,2.11,2.11,0,0,0,0,.25,2.86,2.86,0,0,0,.07.28,2.18,2.18,0,0,0,.11.27A3.13,3.13,0,0,0,69,240L285.59,365.1a6.45,6.45,0,0,0,2.13.72,8.81,8.81,0,0,0,1.46.13,8.66,8.66,0,0,0,1.44-.12,3.12,3.12,0,0,0,.46-.09,6,6,0,0,0,1.3-.44c.14-.06.26-.13.39-.2L399,303.78C400.33,303,400.76,301.87,400.24,300.87Zm-23.33-4.44-6.8,3.93-90.48,52.2a5.49,5.49,0,0,1-.73.36,6.07,6.07,0,0,1-4.66,0,5.49,5.49,0,0,1-.73-.36L101.7,253.37l-8.31-4.8a2.94,2.94,0,0,1-.78-.61c-.86-.94-.59-2.15.78-2.94l97.24-56.14a6.12,6.12,0,0,1,3.77-1,3.47,3.47,0,0,1,.93.25,3,3,0,0,1,.48.23l181.1,104.56A2.06,2.06,0,0,1,376.91,296.43Z"/><path class="cls-5" d="M68.54,236.16a8,8,0,0,0-3.18,6v4.74A7.93,7.93,0,0,0,69,253.08L285.56,378.14a6.81,6.81,0,0,0,2.64.81c.32,0,.63.05,1,.06h0V366h0a11.65,11.65,0,0,1-1.46-.12,6.61,6.61,0,0,1-2.14-.74L69,240C67.13,239,67,237.3,68.54,236.16Z"/><path class="cls-1" d="M342.87,326.34a14.45,14.45,0,0,0-12.82,0,5.17,5.17,0,0,0-1.92,1.75c-1.15,2,.95,3.5,1.92,4.06a14.45,14.45,0,0,0,12.82,0,5.3,5.3,0,0,0,1.91-1.75C345.94,328.4,343.82,326.9,342.87,326.34Z"/><path class="cls-6" d="M130.75,210.85a1.07,1.07,0,0,0,0-2,3.88,3.88,0,0,0-3.51,0,1.07,1.07,0,0,0,0,2A3.88,3.88,0,0,0,130.75,210.85Z"/><path class="cls-6" d="M125.23,220.45a1,1,0,0,0,0-1.8,3.41,3.41,0,0,0-3.11,0,1,1,0,0,0,0,1.8A3.41,3.41,0,0,0,125.23,220.45Z"/><path class="cls-6" d="M130.51,217.48,148,207.41c1-.55,1-1.42.1-1.94a3.7,3.7,0,0,0-3.35.07L127.26,215.6c-1,.56-1,1.42-.1,1.94A3.7,3.7,0,0,0,130.51,217.48Z"/><path class="cls-6" d="M399.45,300c1.48,1.16,1.32,2.79-.48,3.83L292.76,365.1a7.22,7.22,0,0,1-3.59.85V379a7.29,7.29,0,0,0,3.58-.86L399,316.83a7.91,7.91,0,0,0,3.59-6.22l0-4.76A8.07,8.07,0,0,0,399.45,300Z"/><path class="cls-4" d="M119.62,272.94a4,4,0,0,1,1.86,3.08,1.15,1.15,0,0,1-.52,1.08c-.22.13-1.06.63-1.3.76a1.37,1.37,0,0,1-1.34-.15L94.17,263.76a4,4,0,0,1-1.85-3.08,1.2,1.2,0,0,1,.47-1.06l1.34-.78a1.37,1.37,0,0,1,1.34.15Z"/><path class="cls-6" d="M118.32,273.68,94.17,259.74c-1-.59-1.85-.17-1.85.94a4,4,0,0,0,1.85,3.08l24.15,13.95c1,.59,1.86.17,1.86-.94A4,4,0,0,0,118.32,273.68Z"/><path class="cls-4" d="M87.29,254.27a4,4,0,0,1,1.86,3.08,1.18,1.18,0,0,1-.51,1.09c-.23.12-1.07.63-1.3.75A1.34,1.34,0,0,1,86,259l-11.39-6.57a4,4,0,0,1-1.85-3.08,1.15,1.15,0,0,1,.47-1.06c.22-.15,1.1-.65,1.33-.78a1.36,1.36,0,0,1,1.35.15Z"/><path class="cls-6" d="M86,255l-11.39-6.57c-1-.59-1.85-.17-1.85.94a4,4,0,0,0,1.85,3.08L86,259c1,.59,1.85.17,1.85-.94A4,4,0,0,0,86,255Z"/></g><g id="Window"><path class="cls-1" d="M376.91,296.38l-6.8,3.92-90.48,52.21a7.05,7.05,0,0,1-.73.36,6.16,6.16,0,0,1-4.66,0,7.05,7.05,0,0,1-.73-.36L101.7,253.32l-8.31-4.8a2.94,2.94,0,0,1-.78-.61c-.86-.94-.59-2.15.78-2.95l97.24-56.13a6.12,6.12,0,0,1,3.77-1.05,3.47,3.47,0,0,1,.93.25,4,4,0,0,1,.48.22l181.1,104.57A2.06,2.06,0,0,1,376.91,296.38Z"/><path class="cls-7" d="M376.91,296.38l-6.8,3.92-90.48,52.21a7.05,7.05,0,0,1-.73.36,6.16,6.16,0,0,1-4.66,0,7.05,7.05,0,0,1-.73-.36L101.7,253.32l-8.31-4.8a2.94,2.94,0,0,1-.78-.61c-.86-.94-.59-2.15.78-2.95l97.24-56.13a6.12,6.12,0,0,1,3.77-1.05,3.47,3.47,0,0,1,.93.25,4,4,0,0,1,.48.22l181.1,104.57A2.06,2.06,0,0,1,376.91,296.38Z"/><path class="cls-4" d="M113.92,241.18a.48.48,0,0,1-.14-.05l-.48-.28-1.14.67a.2.2,0,0,1-.2,0l-.17-.09-.08-.06a.43.43,0,0,1,0-.07l-.49-1.69s0-.06,0-.07a.17.17,0,0,1,.06-.06l.16-.09a.28.28,0,0,1,.15,0,.37.37,0,0,1,.15,0l1.66,1,.26-.14a.18.18,0,0,1,.13,0,.3.3,0,0,1,.15.05l.11.06s.08.06.08.08,0,0-.07.08l-.25.15.48.27s.07.06.07.08,0,.05-.07.08l-.19.11A.27.27,0,0,1,113.92,241.18Zm-1-.6-1.18-.69.35,1.17Z"/><path class="cls-4" d="M115,240.22a3.2,3.2,0,0,1-1.44-.44c-.48-.28-.73-.55-.76-.83s.16-.54.56-.78a3.43,3.43,0,0,1,.52-.23,2.78,2.78,0,0,1,.53-.11.11.11,0,0,1,.08,0s0,0,0,0l.1.18s0,0,0,.05l-.07,0a1.94,1.94,0,0,0-.75.24c-.27.16-.4.34-.38.54s.22.39.59.6a2.33,2.33,0,0,0,1,.35,1.65,1.65,0,0,0,.89-.21l.26-.18a.73.73,0,0,0,.15-.17l-.78-.45-.48.27a.25.25,0,0,1-.14,0,.3.3,0,0,1-.14,0l-.11-.06s-.08-.06-.08-.08,0-.05.07-.08l.76-.44a.34.34,0,0,1,.16,0,.29.29,0,0,1,.17.06l1.11.64a.18.18,0,0,1,.08.06s0,0,0,.06a1.29,1.29,0,0,1-.66.66A2.41,2.41,0,0,1,115,240.22Z"/><path class="cls-4" d="M124.51,234.52c.37.22.37.56,0,.77a1.42,1.42,0,0,1-1.33,0c-.37-.21-.37-.55,0-.77A1.48,1.48,0,0,1,124.51,234.52Z"/><path class="cls-4" d="M122.09,233.89c-.68.39-.88,1-.62,1.44a.43.43,0,0,0,.4.15h0c.22,0,.37-.15.31-.27-.19-.35,0-.74.43-1a2.65,2.65,0,0,1,1.75-.25c.22,0,.44,0,.47-.18h0c0-.11-.09-.21-.26-.24A4,4,0,0,0,122.09,233.89Z"/><path class="cls-4" d="M121,233.28c-1,.57-1.36,1.38-1.08,2.13a.42.42,0,0,0,.41.17h0c.22,0,.36-.14.31-.26-.24-.61.06-1.27.87-1.74a5.08,5.08,0,0,1,3-.51c.22,0,.43,0,.45-.18h0c0-.11-.11-.21-.3-.23A6.08,6.08,0,0,0,121,233.28Z"/><path class="cls-4" d="M140.69,223.76a.21.21,0,0,1-.11,0s0,0,0-.07l.2-1s0,0,0-.07a.17.17,0,0,1,.06-.06l.34-.2.12,0a.21.21,0,0,1,.12,0l2.85,1.65a.06.06,0,0,1,.05.06s0,.05-.05.07l-.35.21a.24.24,0,0,1-.12,0,.21.21,0,0,1-.12,0l-2.18-1.26-.14.65s0,0-.06.06l-.13,0Z"/><path class="cls-4" d="M142.93,222.47a.21.21,0,0,1-.12,0,.09.09,0,0,1,0-.07l.2-1,0-.07.05-.06.35-.2a.21.21,0,0,1,.12,0l.12,0,2.85,1.65s.05,0,.05.06a.08.08,0,0,1-.05.07l-.36.21a.26.26,0,0,1-.24,0l-2.18-1.26-.13.65a.14.14,0,0,1-.07.06.24.24,0,0,1-.13,0Z"/><path class="cls-4" d="M145.73,220.71l.12,0a.21.21,0,0,1,.12,0l.44.25a.06.06,0,0,1,0,.06.08.08,0,0,1,0,.07l-.41.24-.12,0a.21.21,0,0,1-.12,0l-.44-.25a.07.07,0,0,1,0-.14Zm1.55.89a.25.25,0,0,1,.24,0l.43.25s.05,0,.05.07a.1.1,0,0,1-.05.07l-.41.23a.26.26,0,0,1-.24,0l-.43-.25s-.05,0-.05-.07a.07.07,0,0,1,.05-.06Z"/><path class="cls-4" d="M150.31,220.62a.26.26,0,0,1-.24,0l-.53-.3-1.37.79-.12,0-.12,0-.31-.18c-.05,0-.07-.05-.08-.08a.42.42,0,0,1,0-.1l-.33-1.75a.14.14,0,0,1,.07-.17l.34-.2.12,0,.11,0,1.77,1,.38-.22.12,0,.12,0,.31.19a.07.07,0,0,1,.05.06s0,0-.05.07l-.38.22.54.31a.08.08,0,0,1,0,.14ZM149,220l-.94-.55.19,1Z"/><path class="cls-4" d="M149.11,217.88a.07.07,0,0,1-.05-.06s0,0,.05-.07l1.66-1a.25.25,0,0,1,.24,0l.31.18s.05,0,.05.07,0,.05-.05.07l-1.24.71.52.36a.73.73,0,0,1,.18-.17l.18-.12a2.47,2.47,0,0,1,.53-.22,2.13,2.13,0,0,1,.56-.1,2.09,2.09,0,0,1,.56,0,2,2,0,0,1,.53.2,1.12,1.12,0,0,1,.39.33.49.49,0,0,1,.08.34.5.5,0,0,1-.18.32,1.81,1.81,0,0,1-.39.3,3.33,3.33,0,0,1-.59.26,2.25,2.25,0,0,1-.55.09,2,2,0,0,1-.5,0,1.65,1.65,0,0,1-.41-.14.08.08,0,0,1-.05-.07s0-.05.05-.07l.36-.21.11,0,.12,0a1.23,1.23,0,0,0,.25.05l.24,0,.22-.07.2-.1c.17-.1.26-.2.27-.32s-.06-.21-.22-.3a.81.81,0,0,0-.48-.1,1.16,1.16,0,0,0-.55.15,1.46,1.46,0,0,0-.19.13l-.08.1a.2.2,0,0,1,0,.08.19.19,0,0,1-.08.07l-.41.24-.12,0-.11,0Z"/><polygon class="cls-4" points="101.58 248.71 100.66 248.18 101.88 247.47 102.8 248 101.58 248.71"/><polygon class="cls-4" points="103.42 247.65 101.58 246.59 102.8 245.88 104.64 246.94 103.42 247.65"/><polygon class="cls-4" points="105.26 246.59 102.5 244.99 103.72 244.29 106.48 245.88 105.26 246.59"/><polygon class="cls-4" points="107.1 245.53 103.42 243.4 104.64 242.69 108.33 244.82 107.1 245.53"/><path class="cls-4" d="M190.28,194.05a1.37,1.37,0,0,0-.72.11L185,196.8c-.3.17-.22.49.17.71l1.68,1a2,2,0,0,0,.81.24,1.43,1.43,0,0,0,.36,0,1,1,0,0,0,.36-.1l4.59-2.64c.29-.18.22-.49-.18-.72l-1.67-1A2,2,0,0,0,190.28,194.05Zm-2.7,4.5a.78.78,0,0,1-.34-.12l-1.68-1c-.29-.17-.35-.42-.13-.55l4.59-2.64a.53.53,0,0,1,.19-.06h.11a.81.81,0,0,1,.35.12l1.67,1c.29.17.35.42.14.54l-4.59,2.65A.64.64,0,0,1,187.58,198.55Z"/><path class="cls-4" d="M186.59,196.59l2,1.14-.72.42a.44.44,0,0,1-.25,0l-1.47-.85c-.21-.12-.26-.31-.1-.41Z"/><polygon class="cls-4" points="186.93 196.4 187.79 195.9 189.77 197.04 188.9 197.54 186.93 196.4"/><polygon class="cls-4" points="188.13 195.71 188.99 195.21 190.97 196.36 190.11 196.85 188.13 195.71"/><path class="cls-4" d="M190.31,194.6l1.43.82c.26.16.2.38-.15.58l-.29.17-2-1.15.69-.39A.41.41,0,0,1,190.31,194.6Z"/><path class="cls-4" d="M191.27,194.19a1.23,1.23,0,0,1,.85.23l.31.18c.34.2.52.42.4.5l-.21.14-1.58-.91Z"/><polygon class="cls-4" points="178.59 201.77 182.15 198.68 184.03 201.35 181.57 200.68 178.59 201.77"/></g><g id="Button"><path class="cls-1" d="M254.34,331.72v.88a4.82,4.82,0,0,0,2.19,3.79l17.16,9.9a4.83,4.83,0,0,0,4.38,0l84.57-48.85a4.85,4.85,0,0,0,2.19-3.8v-.87a4.85,4.85,0,0,0-2.19-3.8l-17.16-9.9a4.83,4.83,0,0,0-4.38,0l-84.57,48.86A4.85,4.85,0,0,0,254.34,331.72Z"/><path class="cls-8" d="M362.93,289.17c.91.69.81,1.69-.29,2.33l-84.57,48.86a4.61,4.61,0,0,1-2.19.53v5.92a4.44,4.44,0,0,0,2.2-.52l84.56-48.85a4.88,4.88,0,0,0,2.19-3.8v-.87A4.9,4.9,0,0,0,362.93,289.17Z"/><path class="cls-9" d="M256.2,328.16a4.9,4.9,0,0,0-1.86,3.56v.88a4.81,4.81,0,0,0,2.2,3.79l17.15,9.9a4.38,4.38,0,0,0,2.19.52v-5.92a4.58,4.58,0,0,1-2.19-.53l-17.16-9.9C255.44,329.84,255.33,328.86,256.2,328.16Z"/><path class="cls-4" d="M281.59,321.92a.88.88,0,0,1,.44-.12,1.48,1.48,0,0,1,.39.05l9,2.52.2.07a.16.16,0,0,1,.09.14c0,.05,0,.09-.09.13l-1.34.77a.79.79,0,0,1-.39.12,1.12,1.12,0,0,1-.29,0l-1.18-.34-2.82,1.63.58.68a.21.21,0,0,1,.07.17c0,.07-.07.14-.21.22l-1.34.77a.41.41,0,0,1-.23.06.45.45,0,0,1-.24-.06.37.37,0,0,1-.11-.11l-4.38-5.2a.39.39,0,0,1-.08-.22c0-.09.07-.17.21-.26Zm2.92,3.67,1.72-1-3.41-1Z"/><path class="cls-4" d="M288.38,318a6.68,6.68,0,0,1,1.56-.65,7.85,7.85,0,0,1,1.65-.25,6.31,6.31,0,0,1,1.63.15,6,6,0,0,1,1.48.52l.41.23.36.21.35.2.38.23a3,3,0,0,1,.93.86,1.52,1.52,0,0,1,.26.92,1.79,1.79,0,0,1-.42.95,3.89,3.89,0,0,1-1.11.89L293,323.91a.54.54,0,0,1-.29.07.49.49,0,0,1-.28-.07l-6.86-4a.18.18,0,0,1-.12-.16c0-.07,0-.12.12-.17Zm4.31.88A2.63,2.63,0,0,0,290,319l-1.09.63,4,2.32,1.13-.65c.89-.52.95-1,.17-1.51l-.41-.25-.38-.22-.38-.21A3.92,3.92,0,0,0,292.69,318.88Z"/><path class="cls-4" d="M296.05,313.57a6.68,6.68,0,0,1,1.56-.65,7.85,7.85,0,0,1,1.65-.25,6.31,6.31,0,0,1,1.63.15,5.89,5.89,0,0,1,1.48.52l.42.23.35.21.35.2.39.23a3.08,3.08,0,0,1,.92.86,1.46,1.46,0,0,1,.26.92,1.64,1.64,0,0,1-.42.95,4,4,0,0,1-1.1.89l-2.87,1.65a.51.51,0,0,1-.28.07.52.52,0,0,1-.29-.07l-6.86-4a.19.19,0,0,1-.12-.16.22.22,0,0,1,.12-.17Zm4.31.88a2.63,2.63,0,0,0-2.66.13l-1.08.63,4,2.33,1.14-.66c.89-.52.94-1,.17-1.51l-.41-.25-.39-.22-.37-.21Z"/><path class="cls-4" d="M308.08,306.63a.51.51,0,0,1,.28-.07.52.52,0,0,1,.29.07l1.13.65a.19.19,0,0,1,.11.16.21.21,0,0,1-.11.17l-1.87,1.08,5.44,3.14c.08.05.12.1.12.17a.19.19,0,0,1-.12.16L312,313a.49.49,0,0,1-.28.07.52.52,0,0,1-.29-.07L306,309.82l-1.87,1.08a.65.65,0,0,1-.29.07.58.58,0,0,1-.28-.07l-1.13-.65c-.08-.05-.12-.1-.12-.17a.19.19,0,0,1,.12-.16Z"/><path class="cls-4" d="M311.72,307.73a3,3,0,0,1-.86-.8,1.4,1.4,0,0,1-.27-.9,1.83,1.83,0,0,1,.41-.95,4.28,4.28,0,0,1,1.15-.93,6.36,6.36,0,0,1,1.61-.66,6.78,6.78,0,0,1,1.64-.24,6.17,6.17,0,0,1,1.56.16,5.93,5.93,0,0,1,1.38.49l1,.54.91.55a3,3,0,0,1,.86.8,1.4,1.4,0,0,1,.27.9,1.65,1.65,0,0,1-.41.95,3.89,3.89,0,0,1-1.15.92,6.59,6.59,0,0,1-1.61.68,7.2,7.2,0,0,1-1.64.23,6.17,6.17,0,0,1-1.56-.16,5.77,5.77,0,0,1-1.38-.49c-.31-.16-.62-.34-1-.53Zm6.49-1.63-.4-.26a5.3,5.3,0,0,0-.47-.28q-.24-.15-.48-.27l-.43-.22a2.54,2.54,0,0,0-.6-.22,2.74,2.74,0,0,0-.64-.08,2.63,2.63,0,0,0-.67.09,2.55,2.55,0,0,0-.67.27,1.49,1.49,0,0,0-.47.39.64.64,0,0,0-.15.39.62.62,0,0,0,.13.37,1.43,1.43,0,0,0,.38.34,3.59,3.59,0,0,0,.38.25c.15.09.3.19.47.28l.48.27a4.83,4.83,0,0,0,.45.23,2.91,2.91,0,0,0,1.25.3,2.49,2.49,0,0,0,1.33-.37c.44-.25.64-.5.62-.76A1,1,0,0,0,318.21,306.1Z"/><path class="cls-4" d="M323.59,300.93l.37.23.5.29.51.3.41.21a2.49,2.49,0,0,0,.56.21,2.59,2.59,0,0,0,.63.1,3.14,3.14,0,0,0,.67-.08,2.8,2.8,0,0,0,.71-.29,1.73,1.73,0,0,0,.5-.39.87.87,0,0,0,.18-.34.47.47,0,0,0,0-.29,1,1,0,0,0-.16-.23.59.59,0,0,1-.12-.21q0-.07.18-.18l1.39-.8a.47.47,0,0,1,.46,0,1.93,1.93,0,0,1,.76.74,1.23,1.23,0,0,1,.12.88,2.08,2.08,0,0,1-.48.93,4.23,4.23,0,0,1-1.1.87,6.42,6.42,0,0,1-1.59.65,6.7,6.7,0,0,1-1.64.24,6.2,6.2,0,0,1-1.57-.16,5.16,5.16,0,0,1-1.37-.49c-.31-.15-.63-.33-1-.52s-.64-.38-.93-.57a2.74,2.74,0,0,1-.86-.78,1.5,1.5,0,0,1-.26-.91,1.73,1.73,0,0,1,.4-.95,3.83,3.83,0,0,1,1.14-.92,6.51,6.51,0,0,1,1.51-.63,7.6,7.6,0,0,1,1.6-.29,6.44,6.44,0,0,1,1.53.08,3.94,3.94,0,0,1,1.28.43c.07,0,.1.08.1.14a.14.14,0,0,1-.1.13l-1.39.81a.74.74,0,0,1-.31.1,2.45,2.45,0,0,1-.36-.07,1.87,1.87,0,0,0-.39-.09,2,2,0,0,0-.5,0,3.47,3.47,0,0,0-.59.1,3,3,0,0,0-.68.3,1.46,1.46,0,0,0-.5.41.62.62,0,0,0-.14.38.64.64,0,0,0,.16.37A2.37,2.37,0,0,0,323.59,300.93Z"/><path class="cls-4" d="M330.31,293.79a.88.88,0,0,1,.44-.12,2.06,2.06,0,0,1,.39.05l9,2.52.2.07c.07,0,.1.08.1.14s0,.09-.1.13l-1.34.77a.79.79,0,0,1-.39.12,1.17,1.17,0,0,1-.29,0l-1.17-.34-2.83,1.63.59.68a.24.24,0,0,1,.06.17c0,.07-.07.14-.21.22l-1.34.77a.47.47,0,0,1-.46,0,.24.24,0,0,1-.12-.11l-4.37-5.2a.33.33,0,0,1-.08-.22c0-.09.06-.17.2-.26Zm2.92,3.67,1.72-1-3.41-1Z"/><path class="cls-4" d="M337.17,289.83a6.94,6.94,0,0,1,1.4-.63,5.87,5.87,0,0,1,1.38-.29,4.78,4.78,0,0,1,1.36.1,4.21,4.21,0,0,1,1.28.5,2.16,2.16,0,0,1,1,.95,1,1,0,0,1-.13,1l3.84.7a.37.37,0,0,1,.15,0c.07,0,.1.08.1.14s0,.09-.1.13l-1.44.83a.66.66,0,0,1-.4.12l-.33,0-3.45-.63-1,.56,2.27,1.31c.08.05.12.1.12.17a.19.19,0,0,1-.12.16l-1.39.8a.52.52,0,0,1-.29.07.51.51,0,0,1-.28-.07l-6.86-3.95a.22.22,0,0,1-.12-.17c0-.07,0-.12.12-.17Zm2,2.55,1.2-.69a1.33,1.33,0,0,0,.57-.52c.08-.18,0-.36-.32-.53a1.36,1.36,0,0,0-.91-.18,2.48,2.48,0,0,0-.91.32l-1.2.7Z"/><path class="cls-4" d="M346.77,284.29a.54.54,0,0,1,.29-.07.49.49,0,0,1,.28.07l1.13.65a.19.19,0,0,1,.12.16c0,.07,0,.12-.12.17l-1.87,1.08,5.45,3.14a.21.21,0,0,1,.11.17.19.19,0,0,1-.11.16l-1.39.8a.64.64,0,0,1-.58,0l-5.44-3.14-1.87,1.08a.61.61,0,0,1-.28.07.62.62,0,0,1-.29-.07l-1.13-.65a.21.21,0,0,1-.11-.17.19.19,0,0,1,.11-.16Z"/><path class="cls-4" d="M268.33,327.7c-2.69,1.55-2.69,4.06,0,5.6a10.72,10.72,0,0,0,9.71,0c2.68-1.54,2.68-4.05,0-5.6A10.72,10.72,0,0,0,268.33,327.7Zm8,1.83-1.8,1,1.8,1a.36.36,0,0,1,0,.69,1.31,1.31,0,0,1-1.19,0l-1.81-1-1.8,1a1.31,1.31,0,0,1-1.19,0,.36.36,0,0,1,0-.69l1.8-1-1.8-1a.36.36,0,0,1,0-.69,1.31,1.31,0,0,1,1.19,0l1.8,1,1.81-1a1.31,1.31,0,0,1,1.19,0A.36.36,0,0,1,276.3,329.53Z"/></g></g></g><g id="Cart"><g id="Cart-2" data-name="Cart"><path class="cls-5" d="M286.58,262.3a14.86,14.86,0,0,0-6.66-11.7c-1.94-1.14-3.69-1.19-4.93-.38h0l-4.55,2.56L280,269.25l4.51-2.56h0C285.76,266,286.56,264.49,286.58,262.3Z"/><path class="cls-4" d="M275.19,253.28a14.91,14.91,0,0,1,6.66,11.7c0,4.3-3.06,6-6.76,3.85a14.91,14.91,0,0,1-6.66-11.7C268.46,252.83,271.49,251.11,275.19,253.28Z"/><path class="cls-6" d="M272.87,259.73c0-1.68,1-2.45,2.29-1.71a5.43,5.43,0,0,1,2.25,4.37c0,1.67-1,2.44-2.29,1.7A5.46,5.46,0,0,1,272.87,259.73Z"/><path class="cls-8" d="M281.85,265a12.56,12.56,0,0,0-.92-4.5l-11.56-6.71a5.78,5.78,0,0,0-.94,3.36c0,.05,0,.1,0,.16l13.4,7.78S281.85,265,281.85,265Z"/><path class="cls-4" d="M238.7,298.89a14.41,14.41,0,0,1-7.12-1.28l-63-36.31c-3.82-1.92-8.09-6.9-8.36-11.62l-1.94-44.91,3.52-.2,1.94,44.92c.18,3.2,3.53,7.22,6.41,8.66l63,36.32a12.11,12.11,0,0,0,10.58-.61l42-24.22c1-.66,1.58-1.45,1.55-2.12s-.67-1.33-1.74-1.87L218.1,226.47c-3.8-1.91-8.06-6.9-8.33-11.62l-.94-24.91,3.51-.19.94,24.9c.18,3.22,3.53,7.23,6.39,8.67l67.5,39.19c2.25,1.13,3.55,2.84,3.67,4.81s-1,3.88-3.13,5.26l-42,24.22A14.57,14.57,0,0,1,238.7,298.89Z"/><path class="cls-5" d="M227.36,297.88a14.86,14.86,0,0,0-6.66-11.7c-1.94-1.14-3.69-1.2-4.92-.38h0l-4.56,2.56,9.55,16.47,4.51-2.56v0C226.54,301.58,227.35,300.07,227.36,297.88Z"/><path class="cls-4" d="M216,288.86a14.86,14.86,0,0,1,6.66,11.7c0,4.3-3,6-6.76,3.85a14.88,14.88,0,0,1-6.65-11.7C209.25,288.41,212.27,286.69,216,288.86Z"/><path class="cls-6" d="M213.65,295.31c0-1.68,1-2.45,2.29-1.71a5.43,5.43,0,0,1,2.25,4.37c0,1.67-1,2.44-2.29,1.7A5.46,5.46,0,0,1,213.65,295.31Z"/><path class="cls-5" d="M180.8,271a14.89,14.89,0,0,0-6.63-11.71c-1.95-1.14-3.7-1.2-4.93-.39h0l-4.56,2.55L174.2,278l4.52-2.56h0C180,274.73,180.78,273.22,180.8,271Z"/><path class="cls-4" d="M169.43,262a14.88,14.88,0,0,1,6.64,11.71c0,4.29-3.07,6-6.77,3.83a14.86,14.86,0,0,1-6.63-11.71C162.7,261.53,165.73,259.82,169.43,262Z"/><path class="cls-6" d="M167.1,268.43c0-1.67,1-2.44,2.29-1.7a5.48,5.48,0,0,1,2.25,4.37c0,1.68-1,2.44-2.3,1.71A5.49,5.49,0,0,1,167.1,268.43Z"/><path class="cls-4" d="M150.76,150.35a11.71,11.71,0,0,1,4.49-12.46l41.91-23.69c3.81-2.5,8-.76,9.32,3.59l2.91,9.43-2.88,1.68-3.11-9.53a3.17,3.17,0,0,0-5-1.75l-40.81,23.07a7.67,7.67,0,0,0-2.93,8l2.46,9.05-3.43,2Z"/><polygon class="cls-1" points="215.56 195.79 159.26 228.3 241.54 275.8 297.84 243.29 215.56 195.79"/><polygon class="cls-10" points="215.56 195.79 159.26 228.3 241.54 275.8 297.84 243.29 215.56 195.79"/><polygon class="cls-1" points="153.67 159.78 209.39 127.22 215.56 195.79 159.26 228.3 153.67 159.78"/><polygon class="cls-11" points="153.67 159.78 209.39 127.22 215.56 195.79 159.26 228.3 153.67 159.78"/><path class="cls-1" d="M209.39,127.22l6.17,68.57,82.28,47.5,13-57.51Zm28.77,65.93a4.73,4.73,0,0,1-5.9-3.06l-13.6-35.29a4.44,4.44,0,1,1,8.22-3.17l13.6,35.29A4.74,4.74,0,0,1,238.16,193.15Zm25.69,12.08a4.71,4.71,0,0,1-5.9-3l-13.6-35.29a4.44,4.44,0,1,1,8.22-3.17L266.17,199A4.71,4.71,0,0,1,263.85,205.23Zm25.69,12.09a4.71,4.71,0,0,1-5.9-3L270,179a4.44,4.44,0,1,1,8.22-3.17l13.6,35.29A4.71,4.71,0,0,1,289.54,217.32Z"/><path class="cls-12" d="M209.39,127.22l6.17,68.57,82.28,47.5,13-57.51Zm28.77,65.93a4.73,4.73,0,0,1-5.9-3.06l-13.6-35.29a4.44,4.44,0,1,1,8.22-3.17l13.6,35.29A4.74,4.74,0,0,1,238.16,193.15Zm25.69,12.08a4.71,4.71,0,0,1-5.9-3l-13.6-35.29a4.44,4.44,0,1,1,8.22-3.17L266.17,199A4.71,4.71,0,0,1,263.85,205.23Zm25.69,12.09a4.71,4.71,0,0,1-5.9-3L270,179a4.44,4.44,0,1,1,8.22-3.17l13.6,35.29A4.71,4.71,0,0,1,289.54,217.32Z"/><path class="cls-1" d="M153.67,159.78l5.59,68.52,82.28,47.5,13-57.5Zm32.48,67.45a4.73,4.73,0,0,1-5.9-3.06l-13.6-35.29a4.44,4.44,0,1,1,8.22-3.17L188.47,221A4.72,4.72,0,0,1,186.15,227.23Zm25.69,12.08a4.71,4.71,0,0,1-5.9-3.05L192.35,201a4.44,4.44,0,1,1,8.22-3.17l13.59,35.29A4.71,4.71,0,0,1,211.84,239.31Zm25.69,12.09a4.7,4.7,0,0,1-5.89-3.05L218,213.06a4.44,4.44,0,1,1,8.22-3.17l13.59,35.29A4.71,4.71,0,0,1,237.53,251.4Z"/><g class="cls-13"><path d="M153.67,159.78l5.59,68.52,82.28,47.5,13-57.5Zm32.48,67.45a4.73,4.73,0,0,1-5.9-3.06l-13.6-35.29a4.44,4.44,0,1,1,8.22-3.17L188.47,221A4.72,4.72,0,0,1,186.15,227.23Zm25.69,12.08a4.71,4.71,0,0,1-5.9-3.05L192.35,201a4.44,4.44,0,1,1,8.22-3.17l13.59,35.29A4.71,4.71,0,0,1,211.84,239.31Zm25.69,12.09a4.7,4.7,0,0,1-5.89-3.05L218,213.06a4.44,4.44,0,1,1,8.22-3.17l13.59,35.29A4.71,4.71,0,0,1,237.53,251.4Z"/></g><polygon class="cls-1" points="254.53 218.3 310.83 185.79 297.84 243.3 241.54 275.8 254.53 218.3"/><polygon class="cls-14" points="254.53 218.3 310.83 185.79 297.84 243.3 241.54 275.8 254.53 218.3"/></g></g><g id="Arrow"><g id="Arrow-2" data-name="Arrow"><polygon class="cls-5" points="274.81 94.15 268.31 97.96 268.33 78.27 264.39 76 246.55 86.3 246.52 110.59 236.12 116.48 259.4 131.58 278.75 96.42 274.81 94.15"/><polygon class="cls-4" points="250.49 88.57 250.46 112.86 240.06 118.76 259.4 131.58 278.75 96.42 268.3 102.56 268.33 78.27 250.49 88.57"/><polygon class="cls-6" points="246.55 86.3 250.49 88.57 250.46 112.86 246.52 110.59 246.55 86.3"/></g></g><g id="Bag"><g id="Bag-2" data-name="Bag"><polygon class="cls-1" points="165.95 109.44 222.33 76.89 217.63 9.07 165.95 38.91 165.95 109.44"/><polygon class="cls-15" points="165.95 109.44 222.33 76.89 217.63 9.07 165.95 38.91 165.95 109.44"/><polygon class="cls-1" points="165.95 38.91 165.95 33.48 151.85 30.77 203.53 0.93 208.23 9.07 217.63 9.07 165.95 38.91"/><polygon class="cls-16" points="165.95 38.91 165.95 33.48 151.85 30.77 203.53 0.93 208.23 9.07 217.63 9.07 165.95 38.91"/><polygon class="cls-1" points="203.53 0.93 203.53 17.21 208.23 14.5 208.23 9.07 203.53 0.93"/><polygon class="cls-17" points="203.53 0.93 203.53 17.21 208.23 14.5 208.23 9.07 203.53 0.93"/><polygon class="cls-1" points="217.63 9.07 208.23 9.07 208.23 14.5 217.63 9.07"/><polygon class="cls-18" points="217.63 9.07 208.23 9.07 208.23 14.5 217.63 9.07"/><polygon class="cls-1" points="151.85 30.77 147.15 98.59 165.95 109.44 165.95 38.91 165.95 33.48 151.85 30.77"/><polygon class="cls-17" points="151.85 30.77 147.15 98.59 165.95 109.44 165.95 38.91 165.95 33.48 151.85 30.77"/><polygon class="cls-1" points="165.95 33.48 156.55 104.01 165.95 109.44 165.95 33.48"/><polygon class="cls-18" points="165.95 33.48 156.55 104.01 165.95 109.44 165.95 33.48"/><polygon class="cls-1" points="165.95 109.44 157.33 98.13 147.15 98.59 165.95 109.44"/><path class="cls-5" d="M167.09,30.05c0,.92.64,1.3,1.44.84A3.22,3.22,0,0,0,170,28.38c0-.92-.65-1.3-1.45-.84A3.21,3.21,0,0,0,167.09,30.05Z"/><path class="cls-5" d="M186.32,19.2c0,.92.65,1.3,1.45.83a3.19,3.19,0,0,0,1.45-2.5c0-.92-.65-1.3-1.45-.84A3.21,3.21,0,0,0,186.32,19.2Z"/><path class="cls-5" d="M168.53,29a.48.48,0,0,1-.48-.48V16.67c0-5.17,4.42-11.92,9.86-15.06,3-1.75,5.9-2.09,7.89-.94,1.58.91,2.46,2.69,2.46,5v12a.49.49,0,0,1-.49.49.48.48,0,0,1-.48-.49v-12c0-2-.69-3.44-2-4.18-1.68-1-4.21-.63-6.92.94-5.18,3-9.38,9.36-9.38,14.22V28.52A.49.49,0,0,1,168.53,29Z"/><path class="cls-4" d="M181.4,38.19c0,.92.65,1.29,1.45.83a3.19,3.19,0,0,0,1.45-2.5c0-.93-.65-1.3-1.45-.84A3.21,3.21,0,0,0,181.4,38.19Z"/><path class="cls-4" d="M200.64,27.34c0,.92.65,1.29,1.45.83a3.18,3.18,0,0,0,1.44-2.5c0-.93-.64-1.3-1.44-.84A3.19,3.19,0,0,0,200.64,27.34Z"/><path class="cls-4" d="M182.85,37.14a.48.48,0,0,1-.48-.49V24.8c0-5.16,4.42-11.91,9.86-15,3-1.75,5.9-2.09,7.89-.94,1.58.91,2.45,2.69,2.45,5v12a.48.48,0,0,1-.48.49.49.49,0,0,1-.49-.49v-12c0-2-.68-3.43-2-4.17-1.68-1-4.2-.63-6.92.94-5.17,3-9.37,9.36-9.37,14.21V36.65A.49.49,0,0,1,182.85,37.14Z"/></g></g><g id="Credit_Card" data-name="Credit Card"><g id="Card"><path class="cls-1" d="M139.5,395.86l65.44-37.78a3.08,3.08,0,0,0,1.77-2.7c0-1,0-4.64,0-4.64s-1.75,2.5-1.78,2.52l-49.57,28.6L139.49,391a9.47,9.47,0,0,1-8.61,0l-99.1-57.22s-1.68-1.95-1.72-2-.09,3.42,0,4.56a3,3,0,0,0,1.76,2.26l99.11,57.2A9.44,9.44,0,0,0,139.5,395.86Z"/><path class="cls-8" d="M139.5,395.86l65.44-37.78a3.08,3.08,0,0,0,1.77-2.7c0-1,0-4.64,0-4.64s-1.75,2.5-1.78,2.52l-49.57,28.6L139.49,391a9.47,9.47,0,0,1-8.61,0l-99.1-57.22s-1.68-1.95-1.72-2-.09,3.42,0,4.56a3,3,0,0,0,1.76,2.26l99.11,57.2A9.44,9.44,0,0,0,139.5,395.86Z"/><path class="cls-5" d="M186.08,364.14h0V369l18.86-10.89a3.08,3.08,0,0,0,1.77-2.7c0-1,0-4.64,0-4.64s-1.75,2.5-1.78,2.52Z"/><path class="cls-1" d="M205,353.26a.34.34,0,0,0,.09-.08c2.28-1.35,2.24-3.55-.09-4.9l-99.12-57.22a9.53,9.53,0,0,0-8.61,0L31.78,328.84c-2.36,1.36-2.37,3.55-.09,4.91l.09.06L130.88,391a9.47,9.47,0,0,0,8.61,0l15.89-9.17Z"/><path class="cls-4" d="M186.08,364.14,205,353.26a.34.34,0,0,0,.09-.08c2.28-1.35,2.24-3.55-.09-4.9l-99.12-57.22a9.53,9.53,0,0,0-8.61,0L78.36,302Z"/><path class="cls-8" d="M30.06,331.84s-.09,3.42,0,4.56a3,3,0,0,0,1.76,2.26l99.11,57.2a9.12,9.12,0,0,0,5.46,1V392a9.32,9.32,0,0,1-5.47-1l-99.1-57.22S30.1,331.86,30.06,331.84Z"/><path class="cls-19" d="M62.14,325.36l-1.92-1.11a.25.25,0,0,1-.14-.17c0-.07,0-.12.1-.17a.6.6,0,0,1,.29-.06.7.7,0,0,1,.3.08l.64.37,2.77-1.59a.33.33,0,0,0,.2-.33c0-.14-.11-.25-.28-.36h0a.26.26,0,0,1-.15-.18.18.18,0,0,1,.11-.16.43.43,0,0,1,.29-.06.58.58,0,0,1,.3.08h0a1,1,0,0,1,.58.71.66.66,0,0,1-.4.67l-2.77,1.59.64.37c.09,0,.14.11.14.18s0,.12-.1.16a.45.45,0,0,1-.29.06A.56.56,0,0,1,62.14,325.36Z"/><path class="cls-19" d="M68,326.8l-1.28-.74a1.31,1.31,0,0,0-.61-.16,1.16,1.16,0,0,0-.58.11l-.41.24s-.06.05,0,.09,0,.06.07.09L67.81,328a.27.27,0,0,1,.14.18.17.17,0,0,1-.1.17.52.52,0,0,1-.29.06.75.75,0,0,1-.31-.09l-3.19-1.84a.26.26,0,0,1-.15-.18.16.16,0,0,1,.1-.16l.83-.48a2.08,2.08,0,0,1,1.16-.24,2.71,2.71,0,0,1,1.23.33l1.27.74a1.4,1.4,0,0,0,.62.17,1,1,0,0,0,.58-.12l.55-.31a.34.34,0,0,0,.21-.34.56.56,0,0,0-.3-.36l-1.28-.73a1.32,1.32,0,0,0-.61-.17,1.06,1.06,0,0,0-.58.12.6.6,0,0,1-.29.06.75.75,0,0,1-.3-.09.26.26,0,0,1-.15-.17.17.17,0,0,1,.11-.17,2,2,0,0,1,1.15-.24,2.56,2.56,0,0,1,1.23.34l1.28.74a1,1,0,0,1,.58.71.66.66,0,0,1-.41.66l-.55.32a2.08,2.08,0,0,1-1.16.24A2.63,2.63,0,0,1,68,326.8Z"/><path class="cls-19" d="M74.06,330.65l-.28.16a2.14,2.14,0,0,1-1.15.23,2.67,2.67,0,0,1-1.23-.33L70.12,330a1,1,0,0,1-.58-.71.68.68,0,0,1,.41-.67.52.52,0,0,1,.29,0,.58.58,0,0,1,.3.08.26.26,0,0,1,.15.18.15.15,0,0,1-.1.16.33.33,0,0,0-.2.34.48.48,0,0,0,.29.35l1.27.74a1.36,1.36,0,0,0,.62.17,1,1,0,0,0,.57-.12l.28-.16a.33.33,0,0,0,.2-.34.48.48,0,0,0-.29-.35l-.31-.18c-.09-.06-.14-.11-.15-.18s0-.12.1-.17a.64.64,0,0,1,.6,0l.32.18a1.32,1.32,0,0,0,.61.17,1,1,0,0,0,.58-.12l.28-.16a.33.33,0,0,0,.2-.33.5.5,0,0,0-.29-.36L74,327.74a1.21,1.21,0,0,0-.61-.17,1.06,1.06,0,0,0-.58.12.52.52,0,0,1-.29.05.62.62,0,0,1-.31-.08.27.27,0,0,1-.14-.18.16.16,0,0,1,.1-.16,2.08,2.08,0,0,1,1.16-.24,2.63,2.63,0,0,1,1.23.34l1.27.73a1,1,0,0,1,.58.71.66.66,0,0,1-.41.67l-.27.16a1.8,1.8,0,0,1-.58.2,3.9,3.9,0,0,1-.69,0,.56.56,0,0,1,0,.4A1,1,0,0,1,74.06,330.65Z"/><path class="cls-19" d="M77.77,334.29a.62.62,0,0,1-.31-.08.27.27,0,0,1-.14-.18.16.16,0,0,1,.1-.16L79,333a2.54,2.54,0,0,1-.79-.28L76.89,332a1,1,0,0,1-.58-.71.66.66,0,0,1,.41-.66l1.38-.8a.62.62,0,0,1,.29-.06.58.58,0,0,1,.3.08.26.26,0,0,1,.15.18c0,.07,0,.12-.1.17l-1.38.8a.34.34,0,0,0-.21.33.53.53,0,0,0,.29.35l1.28.74a1.35,1.35,0,0,0,.61.17,1,1,0,0,0,.58-.12l1.38-.8a.62.62,0,0,1,.29-.06.75.75,0,0,1,.31.08.26.26,0,0,1,.14.18.16.16,0,0,1-.1.17l-3.87,2.24A.51.51,0,0,1,77.77,334.29Z"/><path class="cls-19" d="M87.71,336.77s0,.05,0,.09a.18.18,0,0,0,.07.09l1.76,1a1,1,0,0,1,.58.71.67.67,0,0,1-.41.67l-.55.32a2.17,2.17,0,0,1-1.16.23,2.66,2.66,0,0,1-1.22-.33l-1.28-.74a1,1,0,0,1-.58-.71.67.67,0,0,1,.41-.67.6.6,0,0,1,.29-.06.7.7,0,0,1,.3.09.26.26,0,0,1,.15.17.17.17,0,0,1-.1.17.33.33,0,0,0-.21.34.5.5,0,0,0,.29.35l1.28.74a1.31,1.31,0,0,0,.61.16,1.14,1.14,0,0,0,.58-.11L89,339a.34.34,0,0,0,.21-.34.53.53,0,0,0-.29-.35L87,337.17a.53.53,0,0,1-.29-.35.31.31,0,0,1,.21-.33l1.38-.8a.45.45,0,0,1,.29-.06.61.61,0,0,1,.3.08l3.2,1.84a.27.27,0,0,1,.14.18c0,.07,0,.12-.1.17a.6.6,0,0,1-.29.06.7.7,0,0,1-.3-.09l-2.72-1.57-.15,0a.24.24,0,0,0-.15,0Z"/><path class="cls-19" d="M93.32,340.17l1.28.74a1,1,0,0,1,.58.71.67.67,0,0,1-.41.67l-.55.32a2.15,2.15,0,0,1-1.16.23,2.63,2.63,0,0,1-1.23-.34l-1.27-.73a1,1,0,0,1-.58-.71.66.66,0,0,1,.4-.67l2.22-1.28a2.14,2.14,0,0,1,1.15-.23,2.67,2.67,0,0,1,1.23.33l1.28.74a1,1,0,0,1,.58.71.67.67,0,0,1-.41.67.5.5,0,0,1-.29.06.75.75,0,0,1-.31-.09.28.28,0,0,1-.14-.17c0-.07,0-.12.1-.17a.34.34,0,0,0,.21-.33.51.51,0,0,0-.3-.36l-1.27-.74a1.35,1.35,0,0,0-.62-.16,1.1,1.1,0,0,0-.57.11l-.71.41A2.63,2.63,0,0,1,93.32,340.17Zm-2.3.59a.33.33,0,0,0-.2.33.5.5,0,0,0,.29.36l1.28.74a1.32,1.32,0,0,0,.61.17,1,1,0,0,0,.58-.12l.56-.32a.33.33,0,0,0,.2-.33.51.51,0,0,0-.3-.36l-1.27-.74a1.36,1.36,0,0,0-.62-.17,1,1,0,0,0-.57.12Z"/><path class="cls-19" d="M100.69,344.58l-3.79.53h-.52l-.08,0a.36.36,0,0,1-.16-.17q0-.09.12-.18a1.59,1.59,0,0,1,.44-.07c1.21-.17,2.38-.34,3.51-.52a1,1,0,0,0,.33-.09l.27-.1.09,0a.33.33,0,0,0,.2-.34.48.48,0,0,0-.29-.35l-.64-.37-.32-.18-1.27-.74a.26.26,0,0,1-.15-.18.16.16,0,0,1,.1-.16.45.45,0,0,1,.29-.06.62.62,0,0,1,.31.08l1.28.74.32.18.64.37a1,1,0,0,1,.57.71.66.66,0,0,1-.4.67,3.39,3.39,0,0,1-.45.19A2.28,2.28,0,0,1,100.69,344.58Z"/><path class="cls-19" d="M104.71,348.34l-.28.16a2,2,0,0,1-1.15.24,2.56,2.56,0,0,1-1.23-.34l-1.28-.73a1,1,0,0,1-.58-.71.68.68,0,0,1,.41-.67l.28-.16a1.82,1.82,0,0,1,.57-.2,2.63,2.63,0,0,1,.69,0,.62.62,0,0,1,0-.4,1,1,0,0,1,.35-.33l.27-.16a2.17,2.17,0,0,1,1.16-.23,2.74,2.74,0,0,1,1.23.33l1.27.74a1,1,0,0,1,.58.71.66.66,0,0,1-.4.67l-.28.16a1.88,1.88,0,0,1-.58.19,2.63,2.63,0,0,1-.69,0,.56.56,0,0,1,0,.4A.83.83,0,0,1,104.71,348.34Zm1.3-1.48a.33.33,0,0,0,.2-.34.5.5,0,0,0-.29-.35l-1.28-.74a1.32,1.32,0,0,0-.61-.17,1,1,0,0,0-.58.12l-.27.16a.33.33,0,0,0-.21.34.53.53,0,0,0,.29.35l1.28.74a1.31,1.31,0,0,0,.61.16,1.14,1.14,0,0,0,.58-.11ZM104.07,348a.32.32,0,0,0,.2-.33.48.48,0,0,0-.29-.35l-1.27-.74a1.36,1.36,0,0,0-.62-.17,1,1,0,0,0-.57.12l-.28.16a.33.33,0,0,0-.2.33.48.48,0,0,0,.28.36l1.28.73a1.25,1.25,0,0,0,.62.17,1,1,0,0,0,.57-.12Z"/><path class="cls-19" d="M112.27,354.3l-1.28-.74a1,1,0,0,1-.58-.7.66.66,0,0,1,.41-.67.6.6,0,0,1,.29-.06.66.66,0,0,1,.31.09.28.28,0,0,1,.14.17.17.17,0,0,1-.1.17.34.34,0,0,0-.21.33.54.54,0,0,0,.29.36l1.28.73a1.32,1.32,0,0,0,.62.17A1.16,1.16,0,0,0,114,354l.7-.41a2.54,2.54,0,0,1-.8-.29l-1.27-.73a1,1,0,0,1-.58-.71.67.67,0,0,1,.41-.67l.55-.32a2.15,2.15,0,0,1,1.16-.23,2.66,2.66,0,0,1,1.22.33l1.28.74a1,1,0,0,1,.58.71.66.66,0,0,1-.4.67l-2.22,1.27a2,2,0,0,1-1.15.24A2.56,2.56,0,0,1,112.27,354.3Zm4-1.54a.33.33,0,0,0,.2-.34.5.5,0,0,0-.29-.35l-1.28-.74a1.35,1.35,0,0,0-.61-.17,1,1,0,0,0-.58.12l-.55.32q-.24.13-.21.33a.52.52,0,0,0,.29.36l1.28.73a1.21,1.21,0,0,0,.61.17,1.08,1.08,0,0,0,.59-.11Z"/><path class="cls-19" d="M117.05,357.06l-1.92-1.1a.27.27,0,0,1-.14-.18.15.15,0,0,1,.1-.16.45.45,0,0,1,.29-.06.62.62,0,0,1,.31.08l.64.37,2.76-1.6a.35.35,0,0,0,.21-.33.51.51,0,0,0-.28-.35h0a.26.26,0,0,1-.15-.17c0-.07,0-.12.1-.17a.68.68,0,0,1,.6,0h0a1,1,0,0,1,.58.71.67.67,0,0,1-.41.67l-2.76,1.6.63.37a.26.26,0,0,1,.15.17.18.18,0,0,1-.11.17.49.49,0,0,1-.28.06A.75.75,0,0,1,117.05,357.06Z"/><path class="cls-19" d="M121.21,359.46l-1.28-.73a1,1,0,0,1-.58-.71.67.67,0,0,1,.41-.67l2.21-1.28a2.17,2.17,0,0,1,1.16-.23,2.66,2.66,0,0,1,1.22.33l1.28.74a1,1,0,0,1,.58.71.67.67,0,0,1-.41.67l-2.21,1.27a2.08,2.08,0,0,1-1.16.24A2.55,2.55,0,0,1,121.21,359.46Zm-.73-1,1.28.73a1.24,1.24,0,0,0,.37.14l.43-2.81-2.16,1.25a.34.34,0,0,0-.21.33A.52.52,0,0,0,120.48,358.41Zm4.6-1.18-1.28-.74a1.35,1.35,0,0,0-.37-.13l-.43,2.81,2.16-1.25a.34.34,0,0,0,.21-.34A.53.53,0,0,0,125.08,357.23Z"/><path class="cls-19" d="M126,362.23l-1.92-1.11a.27.27,0,0,1-.14-.18.15.15,0,0,1,.1-.16.45.45,0,0,1,.29-.06.62.62,0,0,1,.31.08l.64.37,2.76-1.6a.35.35,0,0,0,.21-.33.53.53,0,0,0-.29-.35h0a.28.28,0,0,1-.14-.17c0-.07,0-.12.1-.17a.62.62,0,0,1,.29-.06.79.79,0,0,1,.31.08h0a1.07,1.07,0,0,1,.58.71.68.68,0,0,1-.41.67l-2.77,1.6.64.37a.26.26,0,0,1,.15.17.18.18,0,0,1-.11.17.6.6,0,0,1-.29.06A.74.74,0,0,1,126,362.23Z"/><path class="cls-19" d="M134.93,367.39,133,366.28a.28.28,0,0,1-.14-.17.16.16,0,0,1,.1-.17.45.45,0,0,1,.29-.06.62.62,0,0,1,.31.08l.64.37,2.76-1.6a.34.34,0,0,0,.21-.33.51.51,0,0,0-.28-.35h0c-.09-.06-.14-.11-.15-.18s0-.12.1-.17a.62.62,0,0,1,.29-.06.8.8,0,0,1,.31.09h0a1,1,0,0,1,.58.71.67.67,0,0,1-.41.66l-2.77,1.6.64.37a.26.26,0,0,1,.15.18.18.18,0,0,1-.11.16.43.43,0,0,1-.29.06A.61.61,0,0,1,134.93,367.39Z"/><path class="cls-19" d="M140.74,368.83l-1.27-.74a1.36,1.36,0,0,0-.62-.17,1,1,0,0,0-.57.12l-.42.24a.08.08,0,0,0-.05.08.11.11,0,0,0,.07.09L140.6,370c.09.05.14.11.14.18s0,.12-.1.17a.6.6,0,0,1-.29.06.7.7,0,0,1-.3-.09l-3.2-1.84a.24.24,0,0,1-.14-.18c0-.07,0-.12.1-.17l.83-.48a2.14,2.14,0,0,1,1.15-.23,2.67,2.67,0,0,1,1.23.33l1.28.74a1.32,1.32,0,0,0,.61.17,1,1,0,0,0,.58-.12l.56-.32a.33.33,0,0,0,.2-.33.52.52,0,0,0-.29-.36l-1.28-.74a1.35,1.35,0,0,0-.61-.16,1.12,1.12,0,0,0-.58.11.46.46,0,0,1-.29.06.62.62,0,0,1-.31-.08.27.27,0,0,1-.14-.18.15.15,0,0,1,.1-.16,2.06,2.06,0,0,1,1.16-.24,2.55,2.55,0,0,1,1.22.34l1.28.73a1,1,0,0,1,.58.71.66.66,0,0,1-.4.67l-.56.32a2,2,0,0,1-1.15.24A2.75,2.75,0,0,1,140.74,368.83Z"/><path class="cls-19" d="M143.87,372.55,142,371.44a.28.28,0,0,1-.14-.17.16.16,0,0,1,.1-.17.62.62,0,0,1,.29-.06.75.75,0,0,1,.31.08l.64.37,2.76-1.59a.33.33,0,0,0,.2-.34.49.49,0,0,0-.28-.35h0a.24.24,0,0,1-.14-.18c0-.07,0-.12.1-.16a.52.52,0,0,1,.29-.07.8.8,0,0,1,.31.09h0a1,1,0,0,1,.58.71.66.66,0,0,1-.41.66l-2.77,1.6.64.37a.26.26,0,0,1,.15.18.18.18,0,0,1-.11.16.43.43,0,0,1-.29.06A.61.61,0,0,1,143.87,372.55Z"/><path class="cls-19" d="M150.68,374.89l-.27.16a2.17,2.17,0,0,1-1.16.23A2.74,2.74,0,0,1,148,375l-1.27-.74a1,1,0,0,1-.58-.71.67.67,0,0,1,.41-.67.58.58,0,0,1,.28-.06.75.75,0,0,1,.31.09c.09.05.14.11.14.18a.16.16,0,0,1-.09.16.33.33,0,0,0-.21.34.5.5,0,0,0,.29.35l1.28.74a1.2,1.2,0,0,0,.61.16,1,1,0,0,0,.58-.11l.28-.16a.33.33,0,0,0,.2-.34.5.5,0,0,0-.29-.35l-.32-.18a.3.3,0,0,1-.15-.18.19.19,0,0,1,.11-.17.58.58,0,0,1,.28-.06.63.63,0,0,1,.31.09l.32.18a1.36,1.36,0,0,0,.62.17,1,1,0,0,0,.57-.12l.28-.16a.33.33,0,0,0,.2-.33.48.48,0,0,0-.28-.36l-1.28-.73a1.25,1.25,0,0,0-.62-.17,1,1,0,0,0-.57.12.54.54,0,0,1-.29.05.62.62,0,0,1-.31-.08.26.26,0,0,1-.15-.18.18.18,0,0,1,.11-.16,2,2,0,0,1,1.15-.24,2.56,2.56,0,0,1,1.23.34l1.28.73a1,1,0,0,1,.58.71.67.67,0,0,1-.41.67l-.28.16a1.82,1.82,0,0,1-.57.2,3.9,3.9,0,0,1-.69,0,.54.54,0,0,1-.06.39A.79.79,0,0,1,150.68,374.89Z"/><path class="cls-19" d="M129.79,374.68l-1.12-.65s-.08-.06-.08-.1,0-.07,0-.1a.43.43,0,0,1,.17,0,.35.35,0,0,1,.18.05l.38.21,1.61-.93a.19.19,0,0,0,.12-.19.32.32,0,0,0-.16-.21h0a.19.19,0,0,1-.09-.11.11.11,0,0,1,.06-.09.31.31,0,0,1,.17,0,.35.35,0,0,1,.18.05h0a.59.59,0,0,1,.34.41.38.38,0,0,1-.24.39l-1.61.94.37.21a.19.19,0,0,1,.09.11.09.09,0,0,1-.07.09.27.27,0,0,1-.16,0A.48.48,0,0,1,129.79,374.68Z"/><path class="cls-19" d="M133.18,375.52l-.74-.43a.84.84,0,0,0-.36-.1.69.69,0,0,0-.34.07l-.24.14a.05.05,0,0,0,0,.05.07.07,0,0,0,0,.05l1.59.92c.05,0,.08.06.08.1s0,.07-.06.1a.29.29,0,0,1-.17,0,.34.34,0,0,1-.17-.05l-1.87-1.07a.19.19,0,0,1-.09-.11.1.1,0,0,1,.06-.09l.49-.28a1.17,1.17,0,0,1,.67-.14,1.51,1.51,0,0,1,.72.19l.75.43a.69.69,0,0,0,.36.1.49.49,0,0,0,.33-.07l.33-.18a.2.2,0,0,0,.12-.2.3.3,0,0,0-.18-.21l-.74-.43a.69.69,0,0,0-.36-.09.52.52,0,0,0-.34.07.4.4,0,0,1-.17,0,.34.34,0,0,1-.17-.05.14.14,0,0,1-.09-.1.1.1,0,0,1,.06-.1,1.27,1.27,0,0,1,.68-.14,1.47,1.47,0,0,1,.71.2l.75.43a.62.62,0,0,1,.34.41.38.38,0,0,1-.24.39l-.32.19a1.29,1.29,0,0,1-.68.14A1.55,1.55,0,0,1,133.18,375.52Z"/><path class="cls-19" d="M137.66,378.1l-.75-.43a.8.8,0,0,0-.36-.1.65.65,0,0,0-.33.07l-.25.14s0,0,0,.05a.08.08,0,0,0,.05.05l1.58.92a.17.17,0,0,1,.09.1.11.11,0,0,1-.06.1.31.31,0,0,1-.17,0,.48.48,0,0,1-.18-.05l-1.87-1.08s-.08-.06-.08-.1a.08.08,0,0,1,.06-.1l.48-.28a1.29,1.29,0,0,1,.68-.14,1.47,1.47,0,0,1,.71.2l.75.43a.8.8,0,0,0,.36.1.69.69,0,0,0,.34-.07l.32-.19a.19.19,0,0,0,.12-.19.31.31,0,0,0-.17-.21l-.75-.43a.8.8,0,0,0-.36-.1.58.58,0,0,0-.33.07.31.31,0,0,1-.17,0,.35.35,0,0,1-.18-.05.17.17,0,0,1-.09-.1.12.12,0,0,1,.06-.1,1.21,1.21,0,0,1,.68-.13,1.54,1.54,0,0,1,.72.19l.74.43a.59.59,0,0,1,.34.42.4.4,0,0,1-.24.39l-.32.18a1.17,1.17,0,0,1-.67.14A1.48,1.48,0,0,1,137.66,378.1Z"/><path class="cls-19" d="M141.22,380.35l-.16.09a1.17,1.17,0,0,1-.67.14,1.55,1.55,0,0,1-.72-.2l-.75-.43a.58.58,0,0,1-.33-.41.38.38,0,0,1,.24-.39.26.26,0,0,1,.16,0,.34.34,0,0,1,.18,0,.19.19,0,0,1,.09.11.12.12,0,0,1-.06.1c-.09.05-.13.11-.12.19a.31.31,0,0,0,.17.21l.74.43a.88.88,0,0,0,.36.1.69.69,0,0,0,.34-.07l.16-.1c.09-.05.13-.11.12-.19a.31.31,0,0,0-.17-.21l-.19-.11c-.05,0-.08-.06-.08-.1s0-.07.06-.1a.4.4,0,0,1,.17,0,.41.41,0,0,1,.18.05l.18.11a.87.87,0,0,0,.36.09.52.52,0,0,0,.34-.07l.16-.09a.19.19,0,0,0,.12-.19.31.31,0,0,0-.17-.21l-.75-.43a.79.79,0,0,0-.35-.1.69.69,0,0,0-.34.07.24.24,0,0,1-.17,0,.35.35,0,0,1-.18,0,.11.11,0,0,1-.08-.1s0-.07.06-.1a1.24,1.24,0,0,1,.67-.13,1.54,1.54,0,0,1,.72.19l.74.43a.59.59,0,0,1,.34.42.4.4,0,0,1-.24.39l-.16.09a1,1,0,0,1-.33.11,1.4,1.4,0,0,1-.41,0,.31.31,0,0,1,0,.23A.48.48,0,0,1,141.22,380.35Z"/><path class="cls-19" d="M133.43,377.23h0a.13.13,0,0,1,.07-.16l3.24-1.35a.12.12,0,0,1,.16.07.12.12,0,0,1-.06.16l-3.24,1.35A.13.13,0,0,1,133.43,377.23Z"/><path class="cls-1" d="M172.22,362.18l-10.83,6.26a3.24,3.24,0,0,1-2.94,0l-13.23-7.54a.89.89,0,0,1,0-1.69L156.06,353a3.24,3.24,0,0,1,2.94,0c3.58,2.07,9.64,5.46,13.22,7.54A.89.89,0,0,1,172.22,362.18Z"/><g class="cls-20"><path class="cls-7" d="M172.22,362.18l-10.83,6.26a3.24,3.24,0,0,1-2.94,0l-13.23-7.54a.89.89,0,0,1,0-1.69L156.06,353a3.24,3.24,0,0,1,2.94,0c3.58,2.07,9.64,5.46,13.22,7.54A.89.89,0,0,1,172.22,362.18Z"/><polygon class="cls-1" points="171.82 365.4 172.81 365.21 151.14 352.8 150.14 352.99 171.82 365.4"/><polygon class="cls-1" points="158.03 363.63 159.03 363.82 164.55 360.63 163.55 360.44 158.03 363.63"/><polygon class="cls-1" points="152.87 360.77 153.87 360.96 159.38 357.78 158.38 357.59 152.87 360.77"/><polygon class="cls-1" points="166.28 368.6 167.28 368.41 145.61 356 144.61 356.19 166.28 368.6"/></g><path class="cls-4" d="M103.07,360.82,51.29,330.93a3.6,3.6,0,0,0-3.26,0l-.23.13a1,1,0,0,0,0,1.88l51.79,29.9a3.6,3.6,0,0,0,3.26,0l.22-.13A1,1,0,0,0,103.07,360.82Z"/><path class="cls-1" d="M98.26,303.44a.79.79,0,0,1,.3-.05.62.62,0,0,1,.26.07l.81.47c.08.05.12.1.12.16s0,.12-.12.16a4.43,4.43,0,0,1-1,.36,5.29,5.29,0,0,1-1.29.12,7.18,7.18,0,0,1-1.46-.22,6.18,6.18,0,0,1-1.55-.65,3.53,3.53,0,0,1-1-.83,1.41,1.41,0,0,1-.33-.86,1.35,1.35,0,0,1,.3-.84,3.38,3.38,0,0,1,.87-.79c.24-.16.52-.32.83-.5l.87-.48a5.91,5.91,0,0,1,1.37-.5,6,6,0,0,1,1.46-.18,6.26,6.26,0,0,1,1.48.19,6,6,0,0,1,1.44.59,4.18,4.18,0,0,1,1.13.9,1.61,1.61,0,0,1,.37.85,1.12,1.12,0,0,1-.21.74,2.49,2.49,0,0,1-.61.6.51.51,0,0,1-.28.07.77.77,0,0,1-.27-.07l-.82-.48a.21.21,0,0,1-.12-.14c0-.06,0-.12.08-.18a.85.85,0,0,0,.26-.31.67.67,0,0,0,0-.37,1,1,0,0,0-.24-.43,2.32,2.32,0,0,0-.59-.45,2.79,2.79,0,0,0-.81-.32,3.21,3.21,0,0,0-.81-.1,3.49,3.49,0,0,0-.79.1,3.27,3.27,0,0,0-.72.28l-.87.47-.82.5a2.28,2.28,0,0,0-.48.42.77.77,0,0,0-.17.45.72.72,0,0,0,.16.47,1.76,1.76,0,0,0,.57.47,3.77,3.77,0,0,0,.78.34,3.46,3.46,0,0,0,.73.14,2.86,2.86,0,0,0,.66,0A2,2,0,0,0,98.26,303.44Z"/><path class="cls-1" d="M108.52,303.8c.84.49,1.29,1,1.33,1.44s-.27.92-1,1.32a4,4,0,0,1-1.59.53,4.61,4.61,0,0,1-1.76-.13l-1.1,2.25a.24.24,0,0,1-.09.08.45.45,0,0,1-.22,0,.51.51,0,0,1-.22,0l-.86-.5c-.13-.07-.2-.15-.2-.22a.36.36,0,0,1,0-.19l1-2.12-1.34-.77-2.35,1.36a.6.6,0,0,1-.27.06.61.61,0,0,1-.28-.06l-.81-.47c-.08-.05-.12-.1-.12-.16a.19.19,0,0,1,.12-.16l6.51-3.76a.51.51,0,0,1,.28-.07.47.47,0,0,1,.27.07Zm-4.69,1,1.46.85a3.19,3.19,0,0,0,1.12.41,1.69,1.69,0,0,0,1.11-.25q.57-.31.42-.63a1.76,1.76,0,0,0-.73-.64l-1.46-.85Z"/><path class="cls-1" d="M111.31,312.11a.16.16,0,0,1,0,.31l-.72.42a.64.64,0,0,1-.54,0l-4.43-2.56a.18.18,0,0,1-.11-.16.19.19,0,0,1,.11-.16l6.52-3.76a.54.54,0,0,1,.27-.06.57.57,0,0,1,.27.06l4.35,2.51a.19.19,0,0,1,.11.16.21.21,0,0,1-.11.16l-.72.41a.64.64,0,0,1-.54,0l-3.26-1.88-1.61.92,3,1.76a.18.18,0,0,1,.11.16.16.16,0,0,1-.11.15l-.71.42a.61.61,0,0,1-.28.06.54.54,0,0,1-.27-.06l-3-1.76-1.67,1Z"/><path class="cls-1" d="M121.4,311.23a4,4,0,0,1,1.1.87,1.43,1.43,0,0,1,.36.85,1.36,1.36,0,0,1-.32.83,3.49,3.49,0,0,1-.91.8c-.47.31-1,.59-1.49.87a7.57,7.57,0,0,1-1.39.52,5.87,5.87,0,0,1-1.44.19,5.7,5.7,0,0,1-1.46-.2,6.16,6.16,0,0,1-1.47-.62l-2.54-1.47a.16.16,0,0,1,0-.31l6.52-3.77a.57.57,0,0,1,.27-.06.61.61,0,0,1,.28.06Zm-1.13,2.57a2,2,0,0,0,.47-.42.77.77,0,0,0,.17-.46.8.8,0,0,0-.19-.49,2.41,2.41,0,0,0-.64-.5l-1.35-.78-4.54,2.62,1.4.81a3.33,3.33,0,0,0,1.66.46,3.49,3.49,0,0,0,.79-.1,3.56,3.56,0,0,0,.73-.28C119.3,314.39,119.8,314.1,120.27,313.8Z"/><path class="cls-1" d="M118.94,318a.16.16,0,0,1,0-.31l6.52-3.76a.51.51,0,0,1,.28-.07.5.5,0,0,1,.27.07l.82.47a.16.16,0,0,1,0,.31l-6.52,3.77a.6.6,0,0,1-.27.06.61.61,0,0,1-.28-.06Z"/><path class="cls-1" d="M133.38,318.15a.18.18,0,0,1,.11.16q0,.09-.12.15l-.71.42a.6.6,0,0,1-.27.06.61.61,0,0,1-.28-.06l-1.81-1.05L124.77,321a.58.58,0,0,1-.55,0l-.81-.47a.21.21,0,0,1-.12-.16.22.22,0,0,1,.12-.16l5.52-3.19L127.12,316a.16.16,0,0,1-.11-.15.17.17,0,0,1,.11-.16l.72-.42a.54.54,0,0,1,.27-.06.57.57,0,0,1,.27.06Z"/><path class="cls-1" d="M136.22,325.36a.63.63,0,0,1,.3-.05.57.57,0,0,1,.25.07l.82.47a.18.18,0,0,1,.12.16q0,.09-.12.15a4.43,4.43,0,0,1-1,.36,5.29,5.29,0,0,1-1.29.12,6.51,6.51,0,0,1-1.46-.21,5.87,5.87,0,0,1-1.55-.66,3.24,3.24,0,0,1-1-.83,1.38,1.38,0,0,1-.33-.85,1.32,1.32,0,0,1,.3-.85,3.57,3.57,0,0,1,.87-.79l.83-.5.87-.48a6.76,6.76,0,0,1,1.37-.5,5.55,5.55,0,0,1,1.46-.17,5.78,5.78,0,0,1,1.48.19,5.27,5.27,0,0,1,1.44.59,3.83,3.83,0,0,1,1.13.9,1.55,1.55,0,0,1,.37.84,1.13,1.13,0,0,1-.21.75,2.45,2.45,0,0,1-.61.59.51.51,0,0,1-.28.07.6.6,0,0,1-.27-.07l-.82-.47a.25.25,0,0,1-.12-.15c0-.06,0-.12.08-.18a.91.91,0,0,0,.26-.3.7.7,0,0,0,0-.38,1,1,0,0,0-.24-.42,2.32,2.32,0,0,0-.59-.45,3.14,3.14,0,0,0-.81-.33,3.25,3.25,0,0,0-.81-.09,3,3,0,0,0-.79.1,3.83,3.83,0,0,0-.72.27l-.87.48-.83.5a2,2,0,0,0-.47.42.86.86,0,0,0-.18.45.85.85,0,0,0,.17.47,1.9,1.9,0,0,0,.57.47,3.77,3.77,0,0,0,.78.34,4.24,4.24,0,0,0,.73.14,3.56,3.56,0,0,0,.66,0A2,2,0,0,0,136.22,325.36Z"/><path class="cls-1" d="M146.86,325.93c.1.06.15.13.15.19a.4.4,0,0,1-.11.23L143,331.46s0,0-.06.05a.64.64,0,0,1-.54,0l-.73-.42c-.14-.08-.2-.15-.2-.21a.43.43,0,0,1,.06-.17l.68-.89L139,328l-1.55.39a1.09,1.09,0,0,1-.28,0,.65.65,0,0,1-.37-.11l-.72-.42a.17.17,0,0,1-.11-.16.18.18,0,0,1,.11-.15l.08,0,8.85-2.25a1.3,1.3,0,0,1,.4-.07.68.68,0,0,1,.33.09ZM143,328.81l1.76-2.3-4,1Z"/><path class="cls-1" d="M153.52,329.78q1.26.72,1.32,1.44t-1,1.32a4.26,4.26,0,0,1-1.6.53,4.82,4.82,0,0,1-1.76-.13l-1.1,2.24a.2.2,0,0,1-.08.08.41.41,0,0,1-.23.06.4.4,0,0,1-.22-.06l-.85-.49c-.14-.08-.21-.16-.21-.23a.48.48,0,0,1,0-.18l1-2.12-1.34-.78-2.35,1.36a.47.47,0,0,1-.27.07.45.45,0,0,1-.27-.07l-.82-.47a.17.17,0,0,1-.11-.16.16.16,0,0,1,.11-.15l6.52-3.77a.54.54,0,0,1,.27-.06.57.57,0,0,1,.27.06Zm-4.7,1,1.46.84a3.44,3.44,0,0,0,1.12.42,1.69,1.69,0,0,0,1.11-.25q.57-.33.42-.63a1.77,1.77,0,0,0-.73-.65l-1.46-.84Z"/><path class="cls-1" d="M160.27,333.71a3.72,3.72,0,0,1,1.1.86,1.34,1.34,0,0,1,.36.85,1.39,1.39,0,0,1-.31.84,3.94,3.94,0,0,1-.92.8c-.47.3-1,.59-1.49.86a7.1,7.1,0,0,1-1.39.53,5.78,5.78,0,0,1-1.43.18,5.72,5.72,0,0,1-1.47-.2,6.3,6.3,0,0,1-1.46-.61l-2.54-1.47c-.08-.05-.12-.1-.12-.16a.19.19,0,0,1,.12-.16l6.51-3.76a.61.61,0,0,1,.28-.07.57.57,0,0,1,.27.07Zm-1.13,2.56a2,2,0,0,0,.48-.42.77.77,0,0,0,.17-.46.82.82,0,0,0-.2-.49,2.15,2.15,0,0,0-.63-.49l-1.35-.78-4.54,2.62,1.4.81a3.09,3.09,0,0,0,.83.34,3,3,0,0,0,.83.11,3.06,3.06,0,0,0,.79-.1,3.56,3.56,0,0,0,.73-.28C158.17,336.86,158.67,336.57,159.14,336.27Z"/></g></g><g id="Character"><g id="Character-2" data-name="Character"><path class="cls-21" d="M375.62,75.77C372.71,82,367.73,92.39,365,98.13L354.32,85.55h-9s10.8,23,17.24,28.38a5.08,5.08,0,0,0,7.37-.44,94.27,94.27,0,0,0,7.23-10c5.1-7.87,7.38-11.27,7.38-11.27l6.42-27C385.36,64.79,379.66,67.08,375.62,75.77Z"/><path class="cls-1" d="M392,65.18c-3.43-.13-7.16-.56-10.43,2.3a26.6,26.6,0,0,0-7.14,10c-2.21,5.2-5.63,11.79-5.63,11.79a28.75,28.75,0,0,0,6.4,6.68,16.21,16.21,0,0,0,7.69,3.23Z"/><path class="cls-22" d="M392,65.18c-3.43-.13-7.16-.56-10.43,2.3a26.6,26.6,0,0,0-7.14,10c-2.21,5.2-5.63,11.79-5.63,11.79a28.75,28.75,0,0,0,6.4,6.68,16.21,16.21,0,0,0,7.69,3.23Z"/><path class="cls-23" d="M365,98.13a38.18,38.18,0,0,1,3.29,4.48s-1.15-4.24-2.71-5.69Z"/><path class="cls-4" d="M342.65,68.84h0l.85-.89h0a1.06,1.06,0,0,1,.95-.2l10.34,1.75a3.75,3.75,0,0,1,2.47,1.9l9.3,20.21a1,1,0,0,1,0,1.08h0l-.88.92v0a1,1,0,0,1-1,.21l-10.34-1.75a3.72,3.72,0,0,1-2.47-1.9L342.57,70C342.34,69.46,342.39,69.06,342.65,68.84Z"/><path class="cls-6" d="M365.68,92.52,356.39,72.3a3.73,3.73,0,0,0-2.47-1.89l-10.35-1.76c-1-.16-1.4.42-1,1.31l9.3,20.21a3.72,3.72,0,0,0,2.47,1.9l10.34,1.75C365.64,94,366.09,93.4,365.68,92.52Z"/><path class="cls-5" d="M355.07,70.88a3.66,3.66,0,0,1,1.32,1.43l9.3,20.2a1,1,0,0,1,0,1.06l.83-.86h0a1,1,0,0,0,0-1.08l-9.3-20.21A3.46,3.46,0,0,0,356,70.06Z"/><path class="cls-21" d="M347.54,88.83c-4.28-4.92-4.16-11.06-2.19-12.84l1.3,2.84s6.55,1.46,9.7,1.22,5.72-1,6.58-.38c1.83,1.28,2.36,6.77-2.88,8.76C355.6,90.13,347.54,88.83,347.54,88.83Z"/><g id="Botom"><path class="cls-21" d="M422.79,250.18c-2.77,1.48-6.14,1.36-9.42,0L412,232.26l10.79,1.42Z"/><path class="cls-21" d="M389.72,239.47c-2.33,5.05-6.55,3.65-11.3.42l.84-18h11.45Z"/><path class="cls-6" d="M402.61,267.14a4.11,4.11,0,0,0,.12,2.77c.36.56,2.42,2.33,6.16,2.59,3.57.26,6.76-.22,8.85-1.55s3.11-2.8,3.31-4.84,0-4,.94-5.56,2.32-3.07,2.63-3.85a7.92,7.92,0,0,0,0-4.15Z"/><path class="cls-5" d="M412.4,249.39a9.91,9.91,0,0,1-.43,2.26,20.82,20.82,0,0,1-2.19,4.47,18.49,18.49,0,0,1-1.49,2.1c-1.08,1.29-2.42,2.34-3.56,3.58a7.25,7.25,0,0,0-2.21,4.38c-.15,2.8,2.89,3.75,5.23,4.17a17.27,17.27,0,0,0,7.6-.38,7,7,0,0,0,5.12-5.58c.13-.78.08-1.58.18-2.36a11.09,11.09,0,0,1,2.17-4.9,14.28,14.28,0,0,0,1.67-2.66c.73-1.74.15-3.69-.32-5.41-.4-1.49-.86-3.18-1.38-3a1.85,1.85,0,0,1-.13.9,4,4,0,0,0-.41.88,6.89,6.89,0,0,1-.42,1.15,3,3,0,0,1-1.25,1.37c0-1.06-.07-2.11-.1-3.17a1.42,1.42,0,0,0-.25-.93,1.46,1.46,0,0,0-.89-.39,19.55,19.55,0,0,0-6-.49,1,1,0,0,0-.8.35,1.16,1.16,0,0,0-.14.71A27.08,27.08,0,0,1,412.4,249.39Z"/><path class="cls-2" d="M409.4,256.71c1-.78,3.38-.79,4.66-.65a7.77,7.77,0,0,1,3.63,1.27.83.83,0,0,0,1.07-.08h0a.79.79,0,0,0-.08-1.19,7.88,7.88,0,0,0-4.09-1.52c-3.14-.22-4.06.32-4.06.32S409.09,255.78,409.4,256.71Z"/><path class="cls-2" d="M407,259.58c1.31-.77,3.88-.66,5.16-.53a7.35,7.35,0,0,1,3.53,1.35.82.82,0,0,0,1.07-.09h0a.77.77,0,0,0-.08-1.19,8.19,8.19,0,0,0-4.17-1.63c-3.14-.22-4,.42-4,.42A2.6,2.6,0,0,0,407,259.58Z"/><path class="cls-2" d="M415.84,251.54a7.65,7.65,0,0,0-3.95.33c-.55.31-.92,1.18-.56,1.4a7.34,7.34,0,0,1,3.5-.48,10.45,10.45,0,0,1,3.4.94c.27.12.59.28.87.44a.74.74,0,0,0,1-.32h0a.69.69,0,0,0-.27-.9A10.05,10.05,0,0,0,415.84,251.54Z"/><path class="cls-6" d="M359.66,251a3.39,3.39,0,0,0,.14,2.49c.35.73,4.16,2.88,9.3,2.53a21.31,21.31,0,0,0,10.62-3.71c2-1.3,4-1.54,6.54-1.69s5.89-1.41,6.44-2.6a5.63,5.63,0,0,0-.08-3.24Z"/><path class="cls-5" d="M380.31,235.19,379,234.7a1.1,1.1,0,0,0-.75-.09c-.33.13-.46.52-.55.86a12.77,12.77,0,0,1-.56,2.23,5.45,5.45,0,0,1-1.44,1.51,23.42,23.42,0,0,1-4.11,2.65c-1.68.9-3.32,1.6-5.06,2.38s-4.11,1.28-5.49,2.22c-2,1.35-2.28,4.77,0,6.12,2,1.16,7.19,2.42,12.66.87,3-.84,6.28-4,10.19-4.33,2.49-.2,7.19-.89,8.79-2.78.59-.84-.2-3.49-.85-5.78-.7-2.51-1-6.42-1.8-6.2-.06.83-.78,1.32-1.22,2a15.46,15.46,0,0,0-.89,2,3.59,3.59,0,0,1-1.3,1.71,1.65,1.65,0,0,1-2-.11c-.73-.76-.3-2.09-.83-3a3.09,3.09,0,0,0-1.75-1.15Z"/><path class="cls-2" d="M373.88,240.51a2.33,2.33,0,0,1,1.84-1.23c1.13-.21,3.13.62,4.37,1.65a.92.92,0,0,1-.14,1.53h0a.92.92,0,0,1-1.06-.12A7.09,7.09,0,0,0,373.88,240.51Z"/><path class="cls-2" d="M370.37,242.47a2.66,2.66,0,0,1,2.18-1.12,8.31,8.31,0,0,1,4.78,1.79.9.9,0,0,1-.12,1.48h0a.87.87,0,0,1-1-.11A7.11,7.11,0,0,0,370.37,242.47Z"/><path class="cls-2" d="M366.5,244.24a3,3,0,0,1,2.26-1,7.92,7.92,0,0,1,4.58,1.81.9.9,0,0,1-.12,1.48h0a.89.89,0,0,1-1-.12A6.82,6.82,0,0,0,366.5,244.24Z"/><path class="cls-5" d="M421.42,115.29c.64,19.61.59,67.05.59,67.05.21,2.44,1.2,7.45,2,17.21,1.06,12.71-1.23,40.64-1.23,40.64a13,13,0,0,1-10.24.06s-6.13-39.82-8.08-52.38c-1.7-11-5.05-35.84-5.05-35.84l-3.87,32.24a65.85,65.85,0,0,1-.39,16.12c-.9,5.77-4.9,29.54-4.9,29.54a20.26,20.26,0,0,1-11.36-.43s-.37-41.17-.48-46.52c-.11-6.11,2.71-72.53,2.71-72.53Z"/><path class="cls-6" d="M399.42,152,396.52,136s-8-.7-12.48-5.18c0,0,.79,4.39,10.89,7l2.9,16.26-2.28,30.2Z"/></g><path class="cls-24" d="M382.11,80.28c.87-6.28,1.7-14.72,11.43-15.11l12.56.6c3.09.81,15.11,2.23,15.11,2.23l.23,27.24s.76,19.64.53,30.15c-9,5.7-28.55,7.55-40.84-1.78C380.76,114.94,381.26,86.5,382.11,80.28Z"/><path class="cls-5" d="M383.73,32.86a12.43,12.43,0,0,0,5.5,17.37L387,51.79l22.58,2-.29,5.44a4.06,4.06,0,0,0,2.41-1.82c.81-1.45,3-10.35,3-10.35,2.12-4.86,3.16-9.86,1.64-11.52a4.24,4.24,0,0,0-2.25-1.3l3-1.51a2.4,2.4,0,0,0-3.27-1.19,2.48,2.48,0,0,0-.68.51,6.31,6.31,0,0,0,.15-1,4.44,4.44,0,0,0-.67-2.83,5.3,5.3,0,0,0-1.59-1.39c-2.54-1.59-5.55-2.18-8.38-3.18-1.6-.57-3.15-1.27-4.73-1.91a6,6,0,0,0-3.32-.6,2.2,2.2,0,0,0-1.86,2.43,4.27,4.27,0,0,0-4.66-.71,3.71,3.71,0,0,0-2.28,3.68,4.65,4.65,0,0,0-3.06.29,2.66,2.66,0,0,0-1.49,2.55C381.42,30.68,382.53,31.9,383.73,32.86Z"/><path class="cls-21" d="M399.63,36c2.08-.25,4.14-.59,6.2-.91a.69.69,0,0,1,.55.07.56.56,0,0,1,.17.31c1.36,4,1.32,8.25,2.4,12.28.1.37.33,1,.77,1.05.8.09,1.35-.62,1.69-1.24l.77-1.39a3.29,3.29,0,0,1,.57-.71c1-.89,3.83-2,5.16,1.06s-1.52,7.18-3.82,7.82c-4,1.11-4.49-1.44-4.49-1.44l-.76,14.2c-3.52,3.68-15.09,2.4-12.8-.8l.15-4.32a24.55,24.55,0,0,1-5.32.1c-2.88-.54-4.62-2.88-5.4-6-1.25-5.08-1.11-11.29-.13-19a10.58,10.58,0,0,1,.71-2.66C390.1,36.62,395,36.58,399.63,36Z"/><path class="cls-23" d="M396.19,62s6.51-1.09,8.81-2.22a7.5,7.5,0,0,0,3.22-3,10.26,10.26,0,0,1-1.89,3.59c-1.72,2.06-10.2,3.34-10.2,3.34Z"/><path class="cls-6" d="M397.12,46a1.39,1.39,0,1,0,1.43-1.4A1.42,1.42,0,0,0,397.12,46Z"/><path class="cls-6" d="M399.05,40.22,402,41.47a1.65,1.65,0,0,0-.86-2.13A1.54,1.54,0,0,0,399.05,40.22Z"/><path class="cls-25" d="M398.8,53.55l-4.56,1.55a2.36,2.36,0,0,0,3,1.59A2.53,2.53,0,0,0,398.8,53.55Z"/><path class="cls-23" d="M397.25,56.69A2.45,2.45,0,0,0,398.83,55,2,2,0,0,0,396,56.74,2.24,2.24,0,0,0,397.25,56.69Z"/><path class="cls-6" d="M385.56,41.39l2.9-1.11a1.5,1.5,0,0,0-2-.88A1.59,1.59,0,0,0,385.56,41.39Z"/><path class="cls-6" d="M386.58,46A1.4,1.4,0,1,0,388,44.59,1.43,1.43,0,0,0,386.58,46Z"/><path class="cls-23" d="M393.36,45.57l-.21,7.68L388.87,52l4-6.5A1.15,1.15,0,0,1,393.36,45.57Z"/><path class="cls-1" d="M380.59,88.09c.33-8,1-15,3.92-18.71s4.55-4.44,11.57-4.33l0,.48a2.6,2.6,0,0,0-2,1.15,41.62,41.62,0,0,0-5.41,12c-2,7.73-2.38,25-2.49,34.29s0,16.79,0,16.79-4.7-1.1-6.15-3.45C380,126.31,380.25,96.05,380.59,88.09Z"/><path class="cls-11" d="M380.59,88.09c.33-8,1-15,3.92-18.71s4.55-4.44,11.57-4.33l0,.48a2.6,2.6,0,0,0-2,1.15,41.62,41.62,0,0,0-5.41,12c-2,7.73-2.38,25-2.49,34.29s0,16.79,0,16.79-4.7-1.1-6.15-3.45C380,126.31,380.25,96.05,380.59,88.09Z"/><path class="cls-1" d="M404.86,75.43c1-4.24,3.07-7,4-9.19l8.78,1.24c3.23,1.49,7.43,5,7.12,8.6l-2.3,26.06.64,24.67c-5,7.8-20,6.36-20,6.36s-.42-11.1.06-32.54C403.45,88.61,403.59,80.83,404.86,75.43Z"/><path class="cls-11" d="M404.86,75.43c1-4.24,3.07-7,4-9.19l8.78,1.24c3.23,1.49,7.43,5,7.12,8.6l-2.3,26.06.64,24.67c-5,7.8-20,6.36-20,6.36s-.42-11.1.06-32.54C403.45,88.61,403.59,80.83,404.86,75.43Z"/><path class="cls-5" d="M404.45,77.52c.58-2.72.89-7.78,1.37-8.8s3.09-3,3.19-4.41l0-.89a4.42,4.42,0,0,1,2.2,1.13c.82.73,3.24,2.42,3.24,2.42a11.06,11.06,0,0,1-1.82,4.68c-1.44,2.07-3.44,3.42-3.75,2.91s-.26-1.29-.79-2.5c-.66-1.5-.82-2.14-1.52-.65C406.05,72.6,404.45,77.52,404.45,77.52Z"/><path class="cls-5" d="M389.48,76c-.72,2.3,1.16-7.94,2.38-9.74s4.32-2.51,4.32-2.51L396.05,66a3.32,3.32,0,0,0-2,1.38A37.49,37.49,0,0,0,389.48,76Z"/><path class="cls-1" d="M404.13,79.69a187.33,187.33,0,0,1,20,3.13l-.07.74a188.49,188.49,0,0,0-20.05-3.14C404.08,80.18,404.1,79.93,404.13,79.69Z"/><path class="cls-1" d="M381.21,79.53c2.19-.26,4.68-.49,7.41-.62l-.18.75c-2.7.13-5.16.36-7.31.62C381.15,80,381.18,79.77,381.21,79.53Z"/><path class="cls-21" d="M441.14,102.61c-9.38-23.82-11.43-31.23-18.05-34a17.8,17.8,0,0,0-5.45-1.16c-1.63,3-4,14.52,3.82,22.53,0,0,5.68,14,8.54,20.63-.09,6.66.39,12.21-1.64,21.21a6,6,0,0,1-2.26,3c-2.38,1.31-2.78,2.79-4.54,4.48-1.37,1.32-2.57,1.63-2.37,2.07a2.57,2.57,0,0,0,3,1.06,22.32,22.32,0,0,0,3.69-1.93c.23.27-2,3.82-4.31,6.41-3.43,3.81-4.26,6.56,2.59,6.83,4.29.17,8.92-3.35,11.83-11.9.57-1.69,1.17-4.13,1.78-6.51.44-1,3.58-17.06,4.24-22C442.89,107.23,442.67,106.48,441.14,102.61Z"/><path class="cls-1" d="M416.47,67.48a13.6,13.6,0,0,1,8.31,1.46c3.71,2.24,5,4.2,9.47,14.62S439.6,96,439.6,96s-2,5.94-13.94,6.62l-5.35-12.2s-4.45-5.53-4.85-12.36S416.47,67.48,416.47,67.48Z"/><path class="cls-22" d="M416.47,67.48a13.6,13.6,0,0,1,8.31,1.46c3.71,2.24,5,4.2,9.47,14.62S439.6,96,439.6,96s-2,5.94-13.94,6.62l-5.35-12.2s-4.45-5.53-4.85-12.36S416.47,67.48,416.47,67.48Z"/></g></g></svg>