<?xml version="1.0" encoding="utf-8"?>
<!-- Generator: Adobe Illustrator 26.1.0, SVG Export Plug-In . SVG Version: 6.00 Build 0)  -->
<svg version="1.1" id="Calque_1" xmlns="http://www.w3.org/2000/svg" xmlns:xlink="http://www.w3.org/1999/xlink" x="0px" y="0px"
	 viewBox="0 0 99.56 99.56" style="enable-background:new 0 0 99.56 99.56;" xml:space="preserve">
<style type="text/css">
	.st0{fill:#FFFFFF;}
</style>
<path class="st0" d="M60.85,51.26c5.99-3.98,9.96-10.78,9.96-18.5c0-12.24-9.96-22.2-22.2-22.2s-22.2,9.96-22.2,22.2
	c0,7.72,3.96,14.52,9.96,18.5c-13.56,5-23.28,18.02-23.28,33.3h5.92c0-16.32,13.28-29.6,29.6-29.6c16.32,0,29.6,13.28,29.6,29.6
	h5.92C84.13,69.28,74.41,56.26,60.85,51.26z M48.61,49.04c-8.98,0-16.28-7.3-16.28-16.28s7.3-16.28,16.28-16.28
	s16.28,7.3,16.28,16.28S57.59,49.04,48.61,49.04z"/>
</svg>
