<svg xmlns="http://www.w3.org/2000/svg" xmlns:xlink="http://www.w3.org/1999/xlink" viewBox="0 0 494.47 320.74"><defs><style>.cls-1{fill:none;clip-rule:evenodd;}.cls-2{isolation:isolate;}.cls-3{fill:#eaeae4;}.cls-4{fill:#ededed;}.cls-5{fill:#a09a9a;}.cls-6,.cls-8{fill:#ca0007;}.cls-21,.cls-7{fill:#a11211;}.cls-10,.cls-11,.cls-12,.cls-13,.cls-14,.cls-15,.cls-25,.cls-7,.cls-8,.cls-9{fill-rule:evenodd;}.cls-9{fill:#fff;}.cls-11{fill:#4e4e4e;}.cls-12{fill:#eeb400;}.cls-13{fill:#111c3e;}.cls-14{fill:#90a1a1;}.cls-15{fill:#979797;}.cls-15,.cls-25{mix-blend-mode:multiply;}.cls-16{clip-path:url(#clip-path);}.cls-17{fill:#7f1111;}.cls-18{fill:#edb38c;}.cls-19{fill:#b7e2e1;}.cls-20{fill:#a3cecc;}.cls-22{fill:#2d1416;}.cls-23{fill:#c48d69;}.cls-24{fill:#0b0c0c;}.cls-25{fill:#cbd7d7;}</style><clipPath id="clip-path"><path class="cls-1" d="M308.27,82.28v38.23a4,4,0,0,0,4,4h35.77a3.87,3.87,0,0,1,2.87,1.2l9.33,9.55a3.91,3.91,0,0,0,2.88,1.21H386.3a4,4,0,0,0,3.7-5.57L369,80.73a4,4,0,0,0-3.71-2.46h-53A4,4,0,0,0,308.27,82.28Z"/></clipPath></defs><g class="cls-2"><g id="BACKGROUND"><rect class="cls-3" x="-31.65" y="-95.62" width="500" height="500"/><rect class="cls-4" x="-156.65" y="-95.62" width="750" height="500"/></g><g id="OBJECTS"><rect class="cls-5" x="-137.38" y="259.4" width="730.72" height="11.49"/><rect class="cls-6" x="110.25" y="53.29" width="186.6" height="134.5" rx="3.46"/><path class="cls-7" d="M115.68,58.71v8.53H291.43V58.71Zm0,11.46V88H291.43V70.17Zm0,20.73v17.81H291.43V90.9Zm0,20.73v17.81H291.43V111.63Zm0,20.74v17.81H291.43V132.37Zm0,20.73v17.81H291.43V153.1Zm0,20.73v8.53H291.43v-8.53Z"/><rect x="107.06" y="191.51" width="195.64" height="7.44"/><path class="cls-8" d="M303.5,70.83h66.7a4,4,0,0,1,3.71,2.47l27.63,65.9a3.9,3.9,0,0,1,.31,1.55v85.32a2.67,2.67,0,0,1-2.66,2.66h-11.3a34.42,34.42,0,1,0-68.84,0H303.5a2.67,2.67,0,0,1-2.66-2.66V73.49A2.67,2.67,0,0,1,303.5,70.83Z"/><path class="cls-7" d="M305.86,82.28a6.44,6.44,0,0,1,6.43-6.43h53a6.38,6.38,0,0,1,5.93,4l21,50.18a6.44,6.44,0,0,1-5.93,8.92H363.14a6.3,6.3,0,0,1-4.6-1.94l-9.33-9.54a1.48,1.48,0,0,0-1.15-.48H312.29a6.44,6.44,0,0,1-6.43-6.43Z"/><path class="cls-9" d="M308.27,82.28v38.23a4,4,0,0,0,4,4h35.77a3.87,3.87,0,0,1,2.87,1.2l9.33,9.55a3.91,3.91,0,0,0,2.88,1.21H386.3a4,4,0,0,0,3.7-5.57L369,80.73a4,4,0,0,0-3.71-2.46h-53A4,4,0,0,0,308.27,82.28Z"/><path class="cls-7" d="M309.46,142.21v68.3a4,4,0,0,0,2.11,3.54,44.39,44.39,0,0,1,79-9.69V154.17a4,4,0,0,0-4-4H360.85a3.86,3.86,0,0,1-2.87-1.21l-9.33-9.54a3.9,3.9,0,0,0-2.87-1.21H313.47A4,4,0,0,0,309.46,142.21Z"/><path class="cls-10" d="M401.85,151h-6.51a1.46,1.46,0,0,0-1.46,1.46v54.09a1.46,1.46,0,0,0,1.46,1.46h6.51Z"/><path class="cls-11" d="M401.85,154.83H397.3a.77.77,0,0,0-.77.76v1.8a.77.77,0,0,0,.77.76h4.55v-3.32Zm0,49.37v-3.32H397.3a.77.77,0,0,0-.77.77v1.79a.77.77,0,0,0,.77.76Zm0-5.11v-3.33H397.3a.78.78,0,0,0-.77.77v1.79a.78.78,0,0,0,.77.77Zm0-5.12v-3.32H397.3a.77.77,0,0,0-.77.76v1.8a.77.77,0,0,0,.77.76Zm0-5.12v-3.32H397.3a.77.77,0,0,0-.77.76v1.8a.77.77,0,0,0,.77.76Zm0-5.11v-3.33H397.3a.78.78,0,0,0-.77.77V183a.78.78,0,0,0,.77.77Zm0-5.12V175.3H397.3a.77.77,0,0,0-.77.76v1.79a.78.78,0,0,0,.77.77Zm0-5.12v-3.32H397.3a.77.77,0,0,0-.77.76v1.8a.77.77,0,0,0,.77.76Zm0-5.11v-3.33H397.3a.78.78,0,0,0-.77.77v1.79a.78.78,0,0,0,.77.77Zm0-5.12V160H397.3a.77.77,0,0,0-.77.76v1.79a.78.78,0,0,0,.77.77Z"/><rect class="cls-6" x="316.29" y="143.7" width="11.3" height="4.39" rx="1.26"/><path class="cls-12" d="M401.85,161.88a14.25,14.25,0,0,0,0,20.88Z"/><path class="cls-8" d="M257.13,191.51H276.9a17.41,17.41,0,0,1,17.36,17.36h0a17.41,17.41,0,0,1-17.36,17.36H257.13a17.41,17.41,0,0,1-17.36-17.36h0A17.41,17.41,0,0,1,257.13,191.51Z"/><path class="cls-7" d="M261.59,191.51v34.72h-4.46c-.4,0-.79,0-1.17,0V191.55c.38,0,.77,0,1.17,0Zm10.85,0h4.46c.39,0,.78,0,1.17,0v34.64c-.39,0-.78,0-1.17,0h-4.46Z"/><path class="cls-13" d="M353.51,196.86a32,32,0,1,1-32,32,32,32,0,0,1,32-32Zm0,12.35a19.69,19.69,0,1,0,19.68,19.68A19.69,19.69,0,0,0,353.51,209.21Z"/><path class="cls-14" d="M353.51,209.21a19.69,19.69,0,1,1-19.69,19.68,19.68,19.68,0,0,1,19.69-19.68Zm-7.05,10.6,2.83,2.83a7.76,7.76,0,0,1,2.78-1.15v-4a11.46,11.46,0,0,0-5.61,2.32Zm.8,4.87-2.83-2.83a11.47,11.47,0,0,0-2.33,5.61h4a7.29,7.29,0,0,1,1.15-2.78Zm-1.15,5.65h-4a11.47,11.47,0,0,0,2.33,5.61l2.83-2.83a7.42,7.42,0,0,1-1.15-2.78Zm3.18,4.81L346.46,238a11.47,11.47,0,0,0,5.61,2.33v-4a7.42,7.42,0,0,1-2.78-1.15Zm5.65,1.15v4a11.51,11.51,0,0,0,5.62-2.33l-2.83-2.83a7.4,7.4,0,0,1-2.79,1.15Zm4.82-3.18,2.83,2.83a11.46,11.46,0,0,0,2.32-5.61h-4a7.76,7.76,0,0,1-1.15,2.78Zm1.15-5.65h4a11.42,11.42,0,0,0-2.32-5.61l-2.83,2.83a7.62,7.62,0,0,1,1.15,2.78Zm-3.19-4.82,2.83-2.83a11.42,11.42,0,0,0-5.61-2.32v4A7.62,7.62,0,0,1,357.72,222.64Z"/><path class="cls-15" d="M353.51,211.22a17.68,17.68,0,1,1-17.68,17.67,17.67,17.67,0,0,1,17.68-17.67Zm0,2.77a14.9,14.9,0,1,0,14.9,14.9A14.9,14.9,0,0,0,353.51,214Z"/><path class="cls-15" d="M353.51,225.54a3.35,3.35,0,1,1-3.35,3.35A3.35,3.35,0,0,1,353.51,225.54Z"/><path class="cls-13" d="M203.94,196.86a32,32,0,1,1-32,32,32,32,0,0,1,32-32Zm0,12.35a19.69,19.69,0,1,0,19.69,19.68A19.68,19.68,0,0,0,203.94,209.21Z"/><path class="cls-14" d="M203.94,209.21a19.69,19.69,0,1,1-19.68,19.68,19.69,19.69,0,0,1,19.68-19.68Zm-7,10.6,2.82,2.83a7.74,7.74,0,0,1,2.79-1.15v-4a11.42,11.42,0,0,0-5.61,2.32Zm.79,4.87-2.83-2.83a11.46,11.46,0,0,0-2.32,5.61h4a7.62,7.62,0,0,1,1.15-2.78Zm-1.15,5.65h-4a11.46,11.46,0,0,0,2.32,5.61l2.83-2.83a7.76,7.76,0,0,1-1.15-2.78Zm3.18,4.81L196.9,238a11.43,11.43,0,0,0,5.61,2.33v-4a7.4,7.4,0,0,1-2.79-1.15Zm5.66,1.15v4A11.47,11.47,0,0,0,211,238l-2.83-2.83a7.42,7.42,0,0,1-2.78,1.15Zm4.81-3.18,2.83,2.83a11.47,11.47,0,0,0,2.33-5.61h-4a7.42,7.42,0,0,1-1.15,2.78Zm1.15-5.65h4a11.43,11.43,0,0,0-2.33-5.61l-2.83,2.83a7.29,7.29,0,0,1,1.15,2.78Zm-3.18-4.82,2.83-2.83a11.46,11.46,0,0,0-5.61-2.32v4A7.76,7.76,0,0,1,208.16,222.64Z"/><path class="cls-15" d="M203.94,211.22a17.68,17.68,0,1,1-17.67,17.67,17.68,17.68,0,0,1,17.67-17.67Zm0,2.77a14.9,14.9,0,1,0,14.9,14.9A14.9,14.9,0,0,0,203.94,214Z"/><path class="cls-15" d="M203.94,225.54a3.35,3.35,0,1,1-3.35,3.35A3.35,3.35,0,0,1,203.94,225.54Z"/><path class="cls-13" d="M138.43,196.86a32,32,0,1,1-32,32,32,32,0,0,1,32-32Zm0,12.35a19.69,19.69,0,1,0,19.69,19.68A19.69,19.69,0,0,0,138.43,209.21Z"/><path class="cls-14" d="M138.43,209.21a19.69,19.69,0,1,1-19.69,19.68,19.69,19.69,0,0,1,19.69-19.68Zm-7.05,10.6,2.83,2.83a7.76,7.76,0,0,1,2.78-1.15v-4a11.5,11.5,0,0,0-5.61,2.32Zm.8,4.87-2.83-2.83a11.46,11.46,0,0,0-2.32,5.61h4a7.45,7.45,0,0,1,1.15-2.78ZM131,230.33h-4a11.46,11.46,0,0,0,2.32,5.61l2.83-2.83a7.59,7.59,0,0,1-1.15-2.78Zm3.18,4.81L131.38,238A11.51,11.51,0,0,0,137,240.3v-4a7.42,7.42,0,0,1-2.78-1.15Zm5.66,1.15v4a11.47,11.47,0,0,0,5.61-2.33l-2.83-2.83a7.42,7.42,0,0,1-2.78,1.15Zm4.81-3.18,2.83,2.83a11.37,11.37,0,0,0,2.32-5.61h-4a7.42,7.42,0,0,1-1.15,2.78Zm1.15-5.65h4a11.33,11.33,0,0,0-2.32-5.61l-2.83,2.83a7.29,7.29,0,0,1,1.15,2.78Zm-3.18-4.82,2.83-2.83a11.46,11.46,0,0,0-5.61-2.32v4A7.76,7.76,0,0,1,142.65,222.64Z"/><path class="cls-15" d="M138.43,211.22a17.68,17.68,0,1,1-17.68,17.67,17.68,17.68,0,0,1,17.68-17.67Zm0,2.77a14.9,14.9,0,1,0,14.9,14.9A14.9,14.9,0,0,0,138.43,214Z"/><path class="cls-15" d="M138.43,225.54a3.35,3.35,0,1,1-3.35,3.35A3.35,3.35,0,0,1,138.43,225.54Z"/><g class="cls-16"><path class="cls-17" d="M348.56,134.15a6.94,6.94,0,0,0-.54-2.23q-.88-2.38-1.76-4.75c-.19-.51-.38-1-.58-1.52-.26-.66-.55-1.3-.84-2-.09-.2-.19-.4-.28-.61l-1.26-2.83a2.07,2.07,0,0,0-.56-.83,2.3,2.3,0,0,0-1.7-.19,10.05,10.05,0,0,1-7.66-2.33,22.58,22.58,0,0,0,2.3,9.87,27.63,27.63,0,0,0,4.73,7c1.68,1.8,3,2.72,5.47,2.73C347.4,136.5,348.59,135.83,348.56,134.15Z"/><path class="cls-18" d="M350.19,99.12c.22,1.44.7,2.83.95,4.26a14,14,0,0,1-1,8,7.72,7.72,0,0,1-4.29,4.44c-1.05.35-2.18.36-3.26.63a6.87,6.87,0,0,0-4.68,4.32,30.73,30.73,0,0,1-9.19-5.44,31.76,31.76,0,0,0-1.14-16.12,2.37,2.37,0,0,1-.08-2,2.16,2.16,0,0,1,1-.7,33.7,33.7,0,0,1,20.75-1.7c1,.25,1.24.35,1,1.38A7.52,7.52,0,0,0,350.19,99.12Z"/><path class="cls-19" d="M350.67,100.73a7.57,7.57,0,0,1,2.12,5.17c0,2.31-1,4.48-2,6.55a12,12,0,0,1-1.81,2.92,4,4,0,0,1-3,1.38,5.91,5.91,0,0,1-3.4-2c-1-.93-2-1.86-3-2.8a2.45,2.45,0,0,1-.89-1.3.43.43,0,0,0,.61-.07,1.19,1.19,0,0,0,.2-.66c.15-1.44.25-2.88.32-4.33,0-.5-.14-1.53.24-1.92s1.47-.42,1.91-.54Z"/><path class="cls-19" d="M328.83,106.23a.27.27,0,0,0-.13.49c.11.06.3,0,.28-.16a2.31,2.31,0,0,0-.48-1.14c-.21-.27-.66-.72-1-.41a1,1,0,0,0-.08,1.12,2.57,2.57,0,0,0,1,1,.18.18,0,0,0,.22-.28.62.62,0,0,0-.93.12,1.51,1.51,0,0,0-.24.57,1,1,0,0,0,0,.57.57.57,0,0,0,.91.15,1.56,1.56,0,0,0,.35-.5l.41-.75c.11-.2-.21-.39-.32-.18l-.43.8c-.08.15-.29.55-.52.42s0-.53,0-.67.29-.47.48-.27l.23-.29a2.78,2.78,0,0,1-.73-.59c-.16-.2-.36-.6-.19-.84s.24,0,.33.1a2.14,2.14,0,0,1,.28.32,1.79,1.79,0,0,1,.31.8l.28-.16-.06.2C329.06,106.57,329.06,106.21,328.83,106.23Z"/><path class="cls-20" d="M340,107.63a5.8,5.8,0,0,0,.12,2.87,5.71,5.71,0,0,0,2,2.22l2.35,1.79a4.19,4.19,0,0,0,2,1,1.4,1.4,0,0,0,1.61-1.16,2.06,2.06,0,0,0-.87-1.45l-2.14-2,5,0,.12-2.42-4.09-.31,3.9-.8a2,2,0,0,0,1-.38,1.39,1.39,0,0,0,.39-1.17,4.07,4.07,0,0,0-.4-1.22l-4.09,1.15a1.09,1.09,0,0,1-.56,0,.34.34,0,0,1-.25-.43l3.37-1.76a2.08,2.08,0,0,0,.94-.76.73.73,0,0,0-.31-1,6,6,0,0,0-1.79.34l-1.92.41c-1.23.27-2.46.56-3.68.88-.75.19-1.85.26-2.24,1A11.31,11.31,0,0,0,340,107.63Z"/><path class="cls-21" d="M341.85,95a97.59,97.59,0,0,1,13.33.93.73.73,0,0,0,.55-1.28,9.21,9.21,0,0,0-1.52-1,9.2,9.2,0,0,1-3.06-2c-.88-1.06-1.13-2.47-1.72-3.71a9,9,0,0,0-5.72-4.47,16.17,16.17,0,0,0-7.42,0,15.45,15.45,0,0,0-8.42,4.14c-2.18,2.31-3.22,5.88-1.94,8.79a4.8,4.8,0,0,0,.76,1.22c.47.53.67.29,1.27,0a29.82,29.82,0,0,1,3.21-1.14,37.07,37.07,0,0,1,6.77-1.27C339.24,95.09,340.54,95,341.85,95Z"/><path class="cls-6" d="M350.15,92a19.07,19.07,0,0,0-4.27-6A8.2,8.2,0,0,0,339,83.83a7.94,7.94,0,0,0-5.64,5.79,3.9,3.9,0,0,1-1,2.17c-.88.7-2.32.38-3.11,1.18-.56.56-.59,1.49-1.12,2.07a4.74,4.74,0,0,1-.93.66,1.53,1.53,0,0,0-.72.85c-.45,1.86,2.89,0,3.42-.22,1.57-.63,3.16-1.18,4.77-1.68a63.12,63.12,0,0,1,9.88-2.17c.95-.13,1.89-.24,2.84-.32A12.93,12.93,0,0,1,350.15,92Z"/><path class="cls-22" d="M335.45,102.36l-1.4.18a6.94,6.94,0,0,0-.5-2.79,2.7,2.7,0,0,0-2.18-1.64A2.6,2.6,0,0,0,329,99.73a5.09,5.09,0,0,0-.2,3c.18,1,.51,2,.69,3a5.13,5.13,0,0,1-.2,3,5.59,5.59,0,0,0-1.74-3.92c.21,0,.33-.26.24-.45s-.27-.31-.41-.46a2.23,2.23,0,0,1-.43-1.36l-.21-2.35a3,3,0,0,1,.18-1.67,2.84,2.84,0,0,1,1.52-1.14,29.1,29.1,0,0,1,6.46-1.92c.56-.1,1.13-.18,1.69-.24s.88-.19.73.42c-.25,1-.92,2-1.23,3.1A18,18,0,0,0,335.45,102.36Z"/><path class="cls-19" d="M340,103.73l-.15.27-5.9-3c-.16-.08-.6-.35-.4-.59s.67.16.82.24c.65.31,1.29.63,1.93,1C336.59,101.8,340,103.67,340,103.73Z"/><path class="cls-19" d="M328.92,106.88l8.16,3.29,2.29.93a.28.28,0,0,0,.34-.19.29.29,0,0,0-.2-.34l-8.15-3.29-2.29-.93a.28.28,0,0,0-.15.53Z"/><path class="cls-23" d="M332.27,99.85a1.16,1.16,0,0,0-1.37-.52,1.72,1.72,0,0,0-1.07,1.1,3.51,3.51,0,0,0-.12,1.58,7.1,7.1,0,0,0,1.13,3.07c.23.35.6.72,1,.6,1-.29.45-2.11.24-2.73C331.71,101.9,332.77,100.83,332.27,99.85Z"/><path class="cls-21" d="M339.68,118.6a7.16,7.16,0,0,0,.72,2.51,7.06,7.06,0,0,1,.71,2.51,2.37,2.37,0,0,1-1.17,2.2h2.72l1.29,11-22.12-.88c-.24-2.81-1.14-5.52-1.45-8.32s.07-5.88,2-7.93c1.14-1.22,2.73-2,3.75-3.29a10.37,10.37,0,0,0,1.42-3c.14-.42.43-2,.84-2.22s1,.67,1.27,1a19.4,19.4,0,0,0,6.24,5.09C336.23,117.33,339.68,118.58,339.68,118.6Z"/><path class="cls-6" d="M321.64,126.2a27.65,27.65,0,0,0,2.28,8.85,42.78,42.78,0,0,0,12,.35,21.86,21.86,0,0,0-1.38-8.14c-.39-1-.87-2-1.35-2.9a14.62,14.62,0,0,0-1.41-2.38,7.19,7.19,0,0,0-5.63-2.63,3.88,3.88,0,0,0-4,2.45A8.35,8.35,0,0,0,321.64,126.2Z"/><path class="cls-24" d="M372.07,146h0a1.72,1.72,0,0,1-1.07-2.2L376.5,128a1.75,1.75,0,0,1,2.21-1.07h0a1.74,1.74,0,0,1,1.07,2.21L374.28,145A1.74,1.74,0,0,1,372.07,146Z"/></g><path class="cls-25" d="M311.94,113.93l67.15.13a3.92,3.92,0,0,1,3.69,2.46l6.09,14.53c.55,1.29,1.54,2.49.77,3.64a3.89,3.89,0,0,1-3.34,1.8H363.14a3.91,3.91,0,0,1-2.88-1.21l-9.33-9.55a3.87,3.87,0,0,0-2.87-1.2H312.29a4,4,0,0,1-2.48-.87v-7.61A2.13,2.13,0,0,1,311.94,113.93Z"/><path class="cls-9" d="M224.42,91.3,187,91.23l-18.66,32.09L187,155.56l37.36-.09,18.76-32.07Zm-34.93,4.29,32.27.07,6.29,10.81h0l-10.45,6a2.71,2.71,0,0,1-1.09.49,1.07,1.07,0,0,1-.65-.18c-.23-.14-.39-.42-.71-1l-4-6.9s0,0-.06,0L201,110.75a25.68,25.68,0,0,0-8.6,8.93,26.36,26.36,0,0,0-4,14.26,0,0,0,0,0,.07,0h0l0,0s0,0,0,.05h0a28,28,0,0,0,26.5.77h0L225,129a0,0,0,0,0,0,0l-3-5.13,0,0h-9.11c-2,0-3,0-3.34-.34a1.11,1.11,0,0,1-.28-1c.11-.46,1-1,2.72-2L230.06,110a0,0,0,0,0,0,0l-.66-1.14,8.46,14.55-16.07,27.77-32.15.11-16.23-27.9Z"/></g></g></svg>