<?xml version="1.0" encoding="utf-8"?>
<!-- Generator: Adobe Illustrator 26.1.0, SVG Export Plug-In . SVG Version: 6.00 Build 0)  -->
<svg version="1.1" id="Calque_1" xmlns="http://www.w3.org/2000/svg" xmlns:xlink="http://www.w3.org/1999/xlink" x="0px" y="0px"
	 viewBox="0 0 1290 1555.3" style="enable-background:new 0 0 1290 1555.3;" xml:space="preserve">
<style type="text/css">
	.st0{fill-rule:evenodd;clip-rule:evenodd;fill:#2B332B;}
</style>
<path class="st0" d="M896.5,346.4l-502.7-1L142.9,777l249.9,433.6l502.5-1.2l252.3-431.2L896.5,346.4z M426.8,404l434,1l84.6,145.4
	c0,0,0,0,0,0c-0.1,0-0.3,0-0.4,0l-140.6,81.2c-7.4,4.3-11.1,6.4-14.8,6.6c-3.1,0.1-6.1-0.7-8.7-2.3c-3.1-2-5.2-5.7-9.5-13.1
	l-53.6-92.8c-0.1-0.2-0.4-0.3-0.7-0.2l-135.5,78.2c-38.7,21.8-82.3,64.9-115.7,120.1c-33.2,54.9-56.2,121.9-54.1,191.7
	c0,0.5,0.6,0.8,1,0.5v0l-0.6,0.4c-0.2,0.2-0.4,0.5-0.2,0.7l0,0h0c111.8,65.9,253.8,64.6,356.4,10.4v0h0l0,0c0,0,0,0,0,0s0,0,0,0l0,0
	h0L904,853.6c0.2-0.1,0.3-0.5,0.2-0.7l-39.9-69c-0.1-0.2-0.2-0.2-0.4-0.2l-122.6,0.1h0l0,0c-27,0-40.5,0-44.9-4.5
	c-3.7-3.7-5.1-9.1-3.8-14.2c1.6-6.1,13.2-12.9,36.6-26.4l243.2-140.4c0.2-0.1,0.3-0.5,0.2-0.7l-8.9-15.4l113.8,195.7l-216.1,373.5
	l-432.5,1.6L210.7,777.5L426.8,404z"/>
</svg>
