<svg xmlns="http://www.w3.org/2000/svg" version="1.1" xmlns:xlink="http://www.w3.org/1999/xlink" xmlns:svgjs="http://svgjs.com/svgjs" width="1440" height="560" preserveAspectRatio="none" viewBox="0 0 1440 560"><g mask="url(&quot;#SvgjsMask1000&quot;)" fill="none"><rect width="1440" height="560" x="0" y="0" fill="#0e2a47"></rect><path d="M0,592.218C108.945,590.473,182.167,483.311,265.465,413.072C338.189,351.75,403.076,287.38,455.586,208.059C516.691,115.755,610.007,24.121,595.606,-85.635C581.207,-195.379,446.201,-241.292,384.566,-333.228C310.482,-443.733,325.438,-636.302,198.896,-677.377C73.539,-718.067,-37.703,-577.426,-148.667,-506.312C-231.14,-453.457,-285.58,-373.711,-364.811,-316.111C-475.642,-235.539,-665.759,-232.557,-705.577,-101.447C-743.696,24.068,-618.844,143.437,-535.02,244.336C-465.871,327.57,-361.707,362.679,-270.988,421.666C-179.66,481.05,-108.923,593.963,0,592.218" fill="#0b2239"></path><path d="M1440 1107.176C1540.062 1096.049 1625.552 1028.34 1692.873 953.479 1750.446 889.457 1759.864 800.386 1788.81 719.296 1814.954 646.053 1853.607 578.151 1854.607 500.388 1855.722 413.656 1839.035 327.173 1794.811 252.555 1745.012 168.531 1685.011 70.608 1589.061 52.34300000000002 1492.893 34.035999999999945 1413.399 124.35199999999998 1323.375 162.812 1245.9180000000001 195.90300000000002 1152.158 199.13299999999998 1096.8229999999999 262.635 1041.444 326.188 1034.5230000000001 416.776 1028.789 500.877 1023.3910000000001 580.049 1046.885 654.025 1064.87 731.316 1087.598 828.989 1077.3600000000001 943.067 1148.202 1014.047 1221.818 1087.806 1336.4279999999999 1118.693 1440 1107.176" fill="#113255"></path></g><defs><mask id="SvgjsMask1000"><rect width="1440" height="560" fill="#ffffff"></rect></mask></defs></svg>