<svg width="1006" height="866" viewBox="0 0 1006 866" fill="none" xmlns="http://www.w3.org/2000/svg">
<path fill-rule="evenodd" clip-rule="evenodd" d="M754.011 1.71786L251.357 0.761743L0.367134 432.371L250.313 865.921L752.835 864.679L1005.18 433.43L754.011 1.71786ZM284.299 59.3523L718.265 60.3602L802.84 205.73C802.829 205.726 802.818 205.722 802.806 205.719C802.678 205.685 802.542 205.703 802.427 205.769L661.857 286.927C654.459 291.198 650.76 293.334 647.1 293.497C644.016 293.634 640.964 292.817 638.362 291.156C635.274 289.185 633.138 285.486 628.867 278.088L575.262 185.241C575.124 185.002 574.818 184.92 574.579 185.058L439.084 263.286C400.398 285.051 356.745 328.187 323.376 383.424C290.193 438.353 267.153 505.292 269.304 575.151C269.32 575.665 269.899 575.957 270.321 575.664L270.321 575.666L269.745 576.067C269.495 576.24 269.32 576.59 269.578 576.752L269.586 576.757L269.597 576.763C381.407 642.684 523.412 641.39 626.021 587.116C626.03 587.111 626.04 587.114 626.045 587.122C626.05 587.131 626.06 587.134 626.069 587.129L761.553 508.907C761.792 508.769 761.874 508.463 761.736 508.224L721.883 439.196C721.793 439.041 721.628 438.946 721.45 438.946L598.836 439.004L598.835 439.004L598.834 439.004C571.829 439.017 558.326 439.023 553.908 434.49C550.264 430.753 548.825 425.389 550.11 420.33C551.667 414.195 563.361 407.443 586.75 393.939L829.988 253.506C830.227 253.368 830.309 253.062 830.171 252.823L821.306 237.47L935.138 433.125L719.033 806.583L286.555 808.128L68.1952 432.809L284.299 59.3523Z" fill="white"/>
</svg>
